<?xml version="1.0" encoding="UTF-8"?>
<svg width="1227px" height="507px" viewBox="0 0 1227 507" version="1.1" xmlns="http://www.w3.org/2000/svg" xmlns:xlink="http://www.w3.org/1999/xlink">
    <!-- Generator: Sketch 56.3 (81716) - https://sketch.com -->
    <title>about me 2 intento</title>
    <desc>Created with Sketch.</desc>
    <g id="Page-1" stroke="none" stroke-width="1" fill="none" fill-rule="evenodd" opacity="0.760695685">
        <g id="Desktop" transform="translate(0.000000, -1732.000000)">
            <g id="ABOUT-ME" transform="translate(589.000000, 1963.303012) scale(-1, 1) translate(-589.000000, -1963.303012) translate(-134.000000, 1687.303012)">
                <g id="about-me-2-intento" transform="translate(0.000000, 0.696988)">
                    <g id="Plant-Right" opacity="0.247386533" transform="translate(1179.000000, 0.000000)">
                        <path d="M78.6752975,155.969232 C64.6126635,156.471945 48.4873299,169.140027 49.1221025,189.507982 C49.583627,204.307059 51.4577539,218.914975 51.3244982,233.754389 C51.2172439,245.614196 49.5678893,257.161665 46.8277024,268.242534 C44.1928605,278.897964 37.4075661,288.445755 36.5565228,299.622606 C36.0139333,306.74429 37.7618625,316.498525 40.241333,323.148291 C43.2565134,331.233319 42.0491648,330.69617 38.5145288,338.117574 C31.5883778,352.66129 25.5312703,367.465504 21.921798,384.345532 C16.722418,408.658816 14.5818099,436.66474 20.1329985,462.097099 C20.8386676,465.32674 22.5004524,477.00765 25.9650619,477.472185 C29.8346501,477.991956 27.3654277,471.471032 26.9362892,469.325861 C24.1996744,455.638172 21.7890151,443.675661 21.8621192,429.474331 C22.1447626,374.680914 47.5700502,335.927073 61.7359462,287.959007 C62.5311364,285.478526 64.1425408,279.601653 65.2840508,275.716262 C67.0862253,269.58209 68.3433515,258.138142 71.1613833,253.433958 C76.4684656,244.571822 72.5312354,261.680343 71.6602234,264.95898 C70.5591491,269.106184 69.3322121,273.519803 68.1416684,277.177503 C62.716216,294.122384 56.618496,312.637634 51.011789,330.106299 C83.8646541,336.421115 100.928849,283.088528 105.950172,248.676941 C110.087439,220.325573 111.72465,154.884296 78.6752975,155.969232" id="Leaf-Me-Alone!" fill="#69A1AC" transform="translate(62.499244, 316.728735) scale(-1, 1) rotate(6.000000) translate(-62.499244, -316.728735) "></path>
                        <path d="M216.904915,106.467829 C193.163144,108.949989 177.921447,129.593111 170.826386,158.46625 C167.002402,174.026195 166.564101,190.010797 164.439082,206.001168 C161.242367,230.058847 154.36427,248.290201 140.922147,265.429912 C136.75872,270.738111 133.690609,276.188246 131.509599,282.019187 C127.17995,287.840896 123.411081,294.428832 120.64217,302.483446 C117.105138,312.769812 116.104306,325.111373 120.188122,335.366582 C121.286063,338.123384 124.025229,343.657758 126.864128,346.172228 C116.235534,375.999688 110.391513,408.667034 111.050278,441.292838 C111.448336,460.987409 112.177964,480.690057 113.029196,500.360395 C113.258408,505.642052 114.563689,514.363653 116.524235,505.505885 C118.31856,497.403959 116.068437,484.685053 115.860222,476.220785 C114.847141,434.987621 113.981037,397.496738 126.862378,358.973064 C128.213152,354.935372 129.645287,350.92999 131.136912,346.956918 C131.224397,346.889989 131.305759,346.809212 131.387995,346.730743 C131.44486,346.788441 131.496477,346.850754 131.553342,346.907298 C131.648701,346.683431 131.779054,346.416867 131.931279,346.119146 C132.359082,345.537552 132.732644,344.802482 133.087835,343.982019 C134.230394,341.895666 135.523427,339.444663 135.530426,338.102612 C135.530426,338.092227 135.526051,338.076071 135.526051,338.065686 C143.50034,320.913281 152.63381,304.705966 161.963246,288.815989 C161.893258,288.931384 172.082676,270.65041 170.507065,280.760221 C169.747692,285.632224 162.252823,294.910032 159.22583,300.070524 C152.529702,311.551234 144.66652,326.098006 138.13224,340.164732 C137.253012,340.830565 136.01072,344.099723 135.112246,346.53457 C134.616204,347.76815 134.153406,349.012114 133.698483,350.095679 C156.851478,360.175487 174.862085,339.871627 187.143277,316.255913 C187.15815,316.228219 187.171273,316.19937 187.18527,316.171675 C190.922644,309.646052 194.751002,303.166588 199.533826,298.008404 C207.513364,289.401045 216.058932,287.882438 225.467106,283.646265 C251.123931,272.095163 262.032478,228.2806 265.496898,195.770192 C269.405743,159.092848 250.285822,102.85133 216.904915,106.467829" id="Leaf-Me-Alone!" fill="#89C5CC"></path>
                        <path d="M200.736925,10.0794315 C172.239341,39.7880074 154.271773,84.0242424 139.089016,125.850831 C122.131647,172.566932 108.529426,220.512102 101.235602,270.53533 C96.44401,303.400845 91.1210097,336.401098 87.9454901,369.454802 C86.8171307,381.193733 86.0478578,393.003918 85.8142605,404.740701 C85.7953295,405.705184 85.2800564,431.912242 89.0963955,426.324907 C91.2668247,423.147513 89.6692219,399.144307 89.8465925,395.208744 C90.8488817,373.042577 93.4644125,350.938539 96.6620247,328.91959 C101.92654,292.666126 106.195692,256.462149 114.036092,220.706715 C115.20607,215.368133 116.328375,209.745971 118.032755,204.602064 C119.843331,199.133158 118.197565,201.400218 121.838469,199.646155 C125.376338,197.940584 129.329692,198.810784 133.066321,196.572638 C147.88819,187.693515 158.578168,161.037843 166.424029,143.665014 C175.397524,123.798423 182.186512,102.222928 188.193318,80.8332187 C192.605144,65.117433 196.387678,49.4125676 199.542265,33.309752 C200.53634,28.2346832 201.3043,22.8893737 202.765581,17.9671959 C203.159399,16.6394091 204.516664,14.3833977 204.648498,13.1770403 C204.927391,10.6238867 203.985356,8.96687874 204.191248,6.81751459 C203.024647,7.87387638 201.872116,8.9619269 200.736925,10.0794315" id="Leaf-Me-Alone!" fill="#89C5CC" transform="translate(145.240830, 216.961494) rotate(-8.000000) translate(-145.240830, -216.961494) "></path>
                        <path d="M38,448.301695 C38,504.634739 71.5786438,550.301695 113,550.301695 C154.421356,550.301695 188,504.634739 188,448.301695" id="Base" fill="#89C5CC"></path>
                        <path d="M119.857294,449.121266 L116,449.121266 C116.267642,442.579934 116.62115,436.050048 117.430188,429.581542 C120.524558,404.842534 130.199937,368.507401 151.420279,364.491996 C152.203131,364.342346 155.082849,364.317214 158.57117,364.593666 C160.224419,363.345064 162.076327,362.589962 164.027565,362.416323 C182.094613,360.615959 202.271153,380.317147 210.986064,400.819132 C218.01153,417.349121 216.827993,439.055156 212.488635,456.616699 C209.582823,468.373897 203.240879,485.136928 192.6648,485.300286 C179.432916,485.504769 178.794849,463.400049 178.538949,450.477642 C178.198872,433.297648 176.592762,418.331553 166.577306,406.621192 C164.24306,403.89323 161.691635,401.493126 159.33382,398.802862 C155.641788,394.592112 151.561698,390.280835 151.086094,383.314707 C150.429508,373.704009 154.443098,371.974472 160.571231,373.759985 C161.615876,374.063853 172.138923,380.446234 170.580795,375.40156 C170.105191,373.860513 168.367764,372.639327 166.174937,371.724294 C160.500522,370.89037 153.733481,369.922788 151.787294,370.500824 C130.791706,376.726701 122.617215,416.036546 120.446273,441.012024 C120.211978,443.707857 120.022514,446.412483 119.857293,449.121266 Z" id="Leaf-Me-Alone!" fill="#69A1AC"></path>
                    </g>
                    <path d="M220.169778,84.150743 C220.162264,84.2261341 220.154421,84.3011935 220.146236,84.3759101 C219.294988,92.1424273 217.966549,99.929647 216.232497,107.549713 C215.810721,109.402973 215.342766,111.238598 214.830939,113.05582 C218.109706,110.566149 222.466002,108.429187 224.160801,107.778208 C228.559428,106.090568 235.291675,104.371491 239.389364,107.831114 C242.788967,110.701099 242.707383,115.451947 239.644892,118.511321 C235.998226,122.153434 229.715463,121.687243 225.039756,121.070768 C222.924721,120.791667 211.631448,119.301085 214.41686,117.599643 C214.205972,117.666351 213.764186,117.831971 213.288534,118.063533 C212.992213,118.952209 212.683578,119.83705 212.364168,120.717291 C212.428819,120.759463 212.483465,120.803935 212.552735,120.846107 C212.477308,120.808536 212.424971,120.769431 212.35878,120.73186 C209.159289,129.52967 204.827622,137.83982 199.323758,145.538862 C201.26485,144.894784 203.264435,144.434727 205.275566,144.288276 C211.231223,143.853523 223.436547,149.062127 216.405671,156.533441 C209.664188,163.695751 200.209641,155.144071 193.066394,153.661156 C185.569871,162.970396 177.378342,171.839515 168.833537,180.379693 C169.319964,180.559115 169.737122,180.901857 169.959555,181.413286 C173.283731,179.951841 176.781083,177.79571 179.811248,177.320319 C184.183707,176.635602 193.080247,176.545124 196.145817,180.555281 C199.916399,185.486318 195.404631,189.09776 190.607319,189.756407 C183.651099,190.711791 174.812283,186.904825 168.304778,184.30474 C167.539732,184.398285 166.723889,184.135286 166.261321,183.508076 C166.117394,183.452869 165.973467,183.398429 165.833388,183.345523 C157.188527,191.836629 148.246576,200.017197 139.366198,208.011442 C139.456249,208.011442 139.5463,208.010675 139.640199,208.010675 C141.916094,206.69338 144.338225,205.641385 146.928912,205.159093 C152.922282,204.035788 159.885428,204.390799 164.463387,208.888616 C169.023644,213.367264 170.327454,220.853147 165.127607,225.345596 C154.719447,234.338164 141.269576,211.901218 136.32064,210.736509 C127.300953,218.770625 117.818698,226.222004 108.202521,233.506229 C109.264657,233.244763 110.349113,233.068408 111.462816,233.021636 C120.53561,232.633655 141.144891,244.7155 129.495263,254.942552 C119.343401,263.85461 109.126118,245.154087 101.680393,238.412729 C92.622992,245.197026 83.5209509,251.929183 74.6490392,258.954243 C79.3370599,257.976623 83.8149624,258.02953 88.6930899,259.773143 C93.7405435,261.579631 101.813544,265.852021 98.2084403,272.553508 C94.5417632,279.368475 84.7716542,275.672689 79.7126557,273.185318 C76.9534119,271.828919 71.508812,267.451483 66.6299148,265.473241 C52.432701,277.440839 39.9780056,290.787839 30.2386831,306.767128 C24.1583411,316.744216 19.3764215,327.492665 15.8228849,338.610692 C13.5546864,345.707061 9.19608177,357.597216 9.44622242,367 C6.88632147,348.07175 14.4944456,325.893969 22.294216,309.499863 C29.4659409,294.424584 39.695539,281.395023 51.4837059,269.800837 C49.1277658,261.309731 26.2225787,248.048608 40.7053376,241.026616 C48.3950461,237.315495 55.6899172,244.516143 56.9429294,251.805735 C57.8034132,256.814981 55.7653442,262.946765 53.6972582,267.657742 C57.3993399,264.12911 61.2338037,260.726993 65.1729417,257.449859 C70.6167719,252.920605 76.177591,248.537035 81.7861293,244.214806 C73.3798641,235.514374 66.256628,211.520905 78.3149467,208.284408 C96.1203431,203.521292 85.9938799,235.217638 84.4545528,241.176901 C84.1066649,241.179201 83.8419006,241.06112 83.6548724,240.828025 C83.7241421,241.384693 83.8072658,241.980466 83.914249,242.582373 C94.6464375,234.355799 105.521783,226.309414 116.073871,217.863547 C115.201072,217.15046 113.891874,214.531206 112.828969,213.118067 C110.429928,209.932177 108.148645,206.615938 106.546975,202.951589 C104.017091,197.161014 101.765056,188.017395 109.437062,185.087603 C117.780984,181.894812 121.117476,192.277516 120.853481,198.354093 C120.670301,202.556707 119.306457,206.487122 118.488305,210.573189 C118.232777,211.847544 118.649934,217.673391 117.018248,215.091708 C117.052883,216.014121 117.029793,216.679669 116.963602,217.148927 C118.858513,215.624607 120.740341,214.081885 122.611393,212.526894 C122.539814,212.314502 122.490556,212.084473 122.490556,211.820708 C122.490556,210.005019 124.363917,209.403112 125.623856,210.000418 C128.095245,207.903328 130.545084,205.777102 132.955671,203.604102 C138.064697,199.000472 143.25146,194.261892 148.409745,189.415199 C147.396868,188.455982 147.884834,187.226098 146.943536,186.214741 C146.003777,185.205684 144.081157,184.57464 142.963606,183.624624 C140.152795,181.233864 137.896141,177.846316 136.309095,174.545412 C133.68916,169.091445 130.528922,157.77176 139.13453,155.684637 C148.004902,153.529274 151.871692,164.468646 152.079501,171.193136 C152.120293,172.495862 150.524011,184.132219 149.550386,188.337134 C159.097293,179.327698 168.514126,169.954817 177.103572,160.367244 C174.66066,160.217726 167.993834,154.889507 166.664625,153.461032 C163.421263,149.976872 158.373809,142.388243 164.57037,138.833542 C170.079622,135.681389 176.384706,140.989672 178.408151,145.935278 C178.740646,146.749577 179.6704,154.216291 179.598051,157.540965 C183.158515,153.471 186.566585,149.368064 189.753762,145.239826 C191.878803,142.49559 193.878389,139.669311 195.762525,136.77479 C195.359221,136.519459 194.989783,136.091606 194.647282,135.565608 C185.840023,133.607302 175.237138,119.262747 185.927764,115.019494 C191.017549,113.002147 196.158902,117.979956 198.390156,121.952542 C198.847336,122.765309 199.446135,126.763198 199.938719,129.917651 C205.42796,120.289439 209.776559,110.020215 213.232348,99.4389203 C212.468842,99.2081254 211.844645,98.5878161 211.811549,97.5749255 C207.626119,94.9104327 204.326571,92.7013957 201.562709,87.8524023 C199.84559,84.840567 196.827739,78.0064306 202.410879,76.6745676 C209.676502,74.9416888 213.597938,86.0167776 213.901186,91.3871682 C213.93659,92.0105445 213.838843,93.8131985 213.728011,95.4640338 C213.978152,95.4433313 214.229062,95.4602 214.473046,95.5161735 C216.467244,88.9565374 218.134335,82.2941553 219.533584,75.6064702 C215.694502,74.156526 216.093957,53.7752649 218.847044,51.0133936 C225.001273,44.8287033 228.606377,54.4124429 228.034517,59.3488471 C227.359522,65.1693261 224.411711,70.3426593 220.986708,74.8918494 C220.619579,75.373375 220.718096,75.354206 220.666528,74.6541536 C220.599568,74.995362 220.470264,75.2430257 220.288623,75.4178471 C220.290098,78.370724 220.430724,81.3981916 220.181341,84.0317352 C221.10347,83.1128524 223.526921,76.5117616 224.328262,75.4733027 C226.86941,72.1793154 230.402821,69.8825192 234.089118,68.2541356 C240.085008,65.6107264 247.699544,69.4552624 244.048129,77.0954828 C240.167264,85.2135535 227.459532,84.7008139 220.169778,84.150743 Z M158.12936,216.227907 C155.54136,218.215907 157.91736,216.415907 158.12936,216.227907 Z M8.32190488,366.144332 C8.41256168,368.745236 9.00090581,371.142121 10.3219049,373.144332 C9.39961071,370.882523 8.74651173,368.541216 8.32190488,366.144332 Z" id="Leaf-Top" fill="#C1DEE2" opacity="0.2" transform="translate(126.660952, 211.072166) rotate(-3.000000) translate(-126.660952, -211.072166) "></path>
                </g>
            </g>
        </g>
    </g>
</svg>