<?xml version="1.0" encoding="UTF-8"?>
<svg width="1227px" height="306px" viewBox="0 0 1227 306" version="1.1" xmlns="http://www.w3.org/2000/svg" xmlns:xlink="http://www.w3.org/1999/xlink">
    <!-- Generator: Sketch 56.3 (81716) - https://sketch.com -->
    <title>ABOUT ME</title>
    <desc>Created with Sketch.</desc>
    <g id="Page-1" stroke="none" stroke-width="1" fill="none" fill-rule="evenodd">
        <g id="Desktop" transform="translate(0.000000, -1932.000000)">
            <g id="ABOUT-ME" transform="translate(-74.000000, 1931.000000)">
                <g id="Scene/Whiteboard" transform="translate(1121.000000, 28.000000)" fill="#C1DEE2" opacity="0.2">
                    <path d="M190.834859,21.6852597 C195.871407,19.5083344 202.267617,22.6744229 199.200428,28.9663691 C195.915046,35.7040455 185.098842,35.2225548 179,34.7659688 C179.612814,34.7659688 181.911959,28.5500138 182.63574,27.630456 C184.770304,24.9177606 187.73837,23.0262814 190.834859,21.6852597 Z M127.7997,142.268291 C126.5057,143.262291 127.6937,142.362291 127.7997,142.268291 Z M193.930337,53.1009109 C196.687956,55.4474392 196.621778,59.3317804 194.137611,61.8331557 C191.179586,64.8109835 186.083267,64.4298215 182.290527,63.925785 C180.574898,63.6975893 171.41426,62.4788742 173.673671,61.0877584 C173.502608,61.1422997 173.144249,61.2777125 172.758419,61.4670396 C172.518056,62.1936296 172.267704,62.917085 172.008612,63.636779 C172.061055,63.6712591 172.105381,63.7076199 172.16157,63.7421 C172.100387,63.7113814 172.057933,63.6794089 172.004242,63.6486903 C169.408946,70.8418683 165.895277,77.6363309 161.430769,83.9311454 C163.005302,83.40454 164.627284,83.0283934 166.258631,82.9086533 C171.089614,82.5531947 180.99007,86.8118019 175.286913,92.9204237 C169.818499,98.7764004 162.149361,91.7844608 156.355053,90.5720147 C150.274182,98.1833425 143.629551,105.434823 136.698358,112.417359 C137.092927,112.564056 137.431309,112.844286 137.611737,113.262435 C140.308172,112.067543 143.145079,110.304669 145.603025,109.915984 C149.149783,109.356152 156.36629,109.282177 158.852954,112.560922 C161.911495,116.592587 158.251735,119.545339 154.360352,120.083855 C148.717754,120.864986 141.54807,117.752373 136.26945,115.626517 C135.648877,115.703 134.987098,115.48797 134.611882,114.975157 C134.495135,114.930019 134.378387,114.885508 134.264761,114.842251 C127.252406,121.784665 119.999064,128.47318 112.795667,135.009355 C112.868712,135.009355 112.941758,135.008728 113.017924,135.008728 C114.864037,133.931695 116.82877,133.071573 118.930229,132.677245 C123.791804,131.758821 129.440021,132.049081 133.153472,135.726541 C136.852565,139.388329 137.910162,145.508862 133.69226,149.181934 C125.249589,156.534348 114.339609,138.189675 110.325235,137.237397 C103.008837,143.806171 95.3172221,149.898494 87.5169761,155.854149 C88.3785368,155.640372 89.2582028,155.496183 90.1615929,155.457941 C97.5210694,155.140724 114.238469,165.018963 104.788771,173.380703 C96.5539988,180.667291 88.2661593,165.377556 82.2264939,159.865753 C74.8795037,165.412663 67.496303,170.916942 60.2997738,176.660702 C64.102503,175.86139 67.734793,175.904647 71.691729,177.330243 C75.7860154,178.807246 82.3345011,182.300394 79.4101892,187.779597 C76.4359318,193.351583 68.5108219,190.329872 64.4071708,188.296172 C62.1689859,187.187166 57.7525508,183.608131 53.7949904,181.9907 C42.2787956,191.775529 32.1760597,202.68817 24.2759226,215.752998 C19.3437997,223.910365 15.4649035,232.698405 12.5824211,241.788616 C10.7425519,247.590679 7.20703143,257.312189 7.40993522,265 C5.33344904,249.524072 11.5048459,231.391295 17.8316982,217.987309 C23.649106,205.66161 31.9469345,195.008509 41.5090098,185.528986 C39.5979682,178.586573 21.0182242,167.744145 32.7660415,162.002893 C39.0036162,158.968644 44.9209151,164.855966 45.937307,170.81601 C46.635296,174.91162 44.9820984,179.925028 43.3045523,183.77677 C46.3075284,180.891725 49.4178874,178.11012 52.6131539,175.430702 C57.0289647,171.727538 61.539672,168.143488 66.0890872,164.60959 C59.2702711,157.496029 53.4921955,137.878727 63.2734069,135.232535 C77.7164108,131.338163 69.5022411,157.253415 68.2536024,162.125768 C67.97141,162.127649 67.7566442,162.031104 67.6049345,161.840523 C67.6611233,162.295661 67.7285498,162.782771 67.8153302,163.274896 C76.5208393,156.548767 85.3424718,149.969961 93.9018901,143.064536 C93.193912,142.481508 92.1319448,140.33998 91.2697597,139.184583 C89.3237563,136.579767 87.4732737,133.868377 86.1740651,130.872368 C84.1219274,126.137936 82.295169,118.662021 88.5183843,116.266593 C95.2866305,113.656136 97.9930549,122.145139 97.7789133,127.113409 C97.6303253,130.549509 96.5240314,133.763056 95.8603799,137.103865 C95.6531059,138.145791 95.991487,142.909062 94.66793,140.798252 C94.6960244,141.552426 94.6772948,142.096585 94.6236033,142.480254 C96.1606776,141.233955 97.6871384,139.97261 99.2048587,138.701234 C99.146797,138.52758 99.1068406,138.339507 99.1068406,138.123849 C99.1068406,136.639324 100.626434,136.147198 101.648445,136.635562 C103.653134,134.92096 105.640343,133.182536 107.595711,131.40587 C111.739943,127.641895 115.947231,123.767585 120.131419,119.80488 C119.309815,119.020614 119.705633,118.015048 118.942091,117.188153 C118.179797,116.363138 116.620247,115.84719 115.713735,115.070447 C113.433721,113.115738 111.603217,110.346045 110.31587,107.647193 C108.190687,103.187974 105.627232,93.9328852 112.607747,92.2264331 C119.803027,90.464186 122.939608,99.4083268 123.108174,104.906337 C123.141263,105.971459 121.846424,115.485462 121.056661,118.923443 C128.800718,111.557237 136.439265,103.893876 143.406669,96.0549793 C141.425079,95.9327316 136.017225,91.5763263 134.939026,90.4083909 C132.308144,87.5597069 128.213858,81.3551676 133.240253,78.4488077 C137.709131,75.8715762 142.823555,80.2116818 144.46489,84.2552584 C144.734596,84.921038 145.488774,91.0258984 145.430088,93.7441849 C148.318189,90.4165408 151.082676,87.0619394 153.667982,83.68665 C155.391728,81.4429352 157.013709,79.1321408 158.542043,76.7655514 C158.2149,76.55679 157.915227,76.2069736 157.637405,75.7769126 C150.493318,74.1757816 141.892695,62.4475286 150.564491,58.9782025 C154.693114,57.3287994 158.863568,61.3987063 160.67347,64.6467328 C161.044315,65.3112585 161.530036,68.5799731 161.9296,71.1590854 C166.382246,63.2869626 169.90965,54.8907421 172.712844,46.2393688 C172.093519,46.0506686 171.587196,45.5434975 171.56035,44.7153479 C168.165302,42.5368318 165.488845,40.7307009 163.246914,36.7661151 C161.854057,34.3036082 159.406101,28.7159495 163.934914,27.6270049 C169.828489,26.2101858 173.009396,35.2652899 173.255378,39.6561753 C173.284096,40.165854 173.204808,41.639722 173.114906,42.9894616 C173.317809,42.972535 173.521338,42.9863271 173.719247,43.0320916 C175.336858,37.668867 176.689134,32.2216364 177.824147,26.7537177 C174.710042,25.5682288 175.034063,8.90430467 177.267254,6.64617086 C182.259311,1.58950586 185.183623,9.4252678 184.719754,13.4613215 C184.172226,18.2202037 181.781083,22.449973 179.002862,26.1694366 C178.705061,26.5631368 178.784974,26.547464 178.743145,25.9750941 C178.688829,26.2540696 178.583943,26.4565619 178.436604,26.5994976 C178.437852,29.1196803 178.562092,31.7063155 178.321105,33.9237001 C177.630608,40.2736827 176.553032,46.6405919 175.146441,52.8708345 C174.804314,54.3860787 174.424728,55.8869038 174.009555,57.3726832 C176.669156,55.3371028 180.202803,53.5899015 181.577555,53.057654 C185.14554,51.6778227 190.606461,50.272288 193.930337,53.1009109 Z M7,265 C7.0453284,267.229347 7.33950046,269.283819 8,271 C7.53885291,269.061307 7.21230342,267.054472 7,265 Z" id="Leaf-Bottom" transform="translate(103.500000, 138.000000) scale(-1, 1) rotate(-3.000000) translate(-103.500000, -138.000000) "></path>
                </g>
                <g id="Plant-Right" opacity="0.247386533" transform="translate(74.000000, 120.000000)">
                    <path d="M36.8344679,52.5957711 C30.5329639,52.9267858 23.1698825,57.4280712 23.2228309,64.3637622 C23.2614402,69.4031372 23.9346373,74.3613127 23.7065074,79.4211899 C23.5238457,83.4651026 22.6543365,87.4200548 21.3017625,91.2283396 C20.0011811,94.8904076 16.8550304,98.2220307 16.3471303,102.041586 C16.0233623,104.47534 16.6951649,107.780456 17.7297212,110.019037 C18.9878187,112.740778 18.4533908,112.571385 16.7866903,115.141274 C13.5207597,120.177475 10.6409398,125.292607 8.83335163,131.087541 C6.22957715,139.434326 4.95328266,149.005108 7.14979889,157.611305 C7.42905864,158.704192 8.04042117,162.66704 9.58624199,162.786054 C11.3127434,162.919299 10.2813124,160.724521 10.1135425,159.998161 C9.04376494,155.363458 8.10033071,151.313122 8.29428677,146.471434 C9.0428945,127.790597 20.8656873,114.291783 27.7522952,97.7799111 C28.1364602,96.9253531 28.9246009,94.903788 29.4797622,93.5664012 C30.3562311,91.4549641 31.0489656,87.5397523 32.3639961,85.904227 C34.8405718,82.8231078 32.8836534,88.6996499 32.4564817,89.8271393 C31.9164511,91.253312 31.3170475,92.7717275 30.7425191,94.032057 C28.1211861,99.8697147 25.1810527,106.250302 22.4726261,112.268561 C37.1090577,114.048137 45.3541284,95.6747368 47.992833,83.8877288 C50.1669475,74.1765261 51.6428756,51.8507363 36.8344679,52.5957711" id="Leaf-Me-Alone!" fill="#69A1AC" transform="translate(27.692267, 107.684720) scale(-1, 1) rotate(6.000000) translate(-27.692267, -107.684720) "></path>
                    <path d="M97.1447687,36.0564774 C86.575851,36.9002885 79.7908379,43.9179257 76.6323913,53.7333598 C74.9301016,59.0229691 74.7349867,64.4569403 73.7890105,69.8928729 C72.3659571,78.0712898 69.3040943,84.2690454 63.3201817,90.0956967 C61.466785,91.9002208 60.1009808,93.7529963 59.1300797,95.7352268 C57.2026874,97.7143189 55.524933,99.9538902 54.292321,102.692059 C52.7177712,106.188913 52.2722394,110.384432 54.090196,113.870694 C54.5789569,114.807869 55.7983275,116.689282 57.0620956,117.544077 C52.330657,127.683933 49.7291252,138.78921 50.0223817,149.880364 C50.1995818,156.57554 50.5243838,163.273463 50.9033195,169.960402 C51.0053557,171.755903 51.5864164,174.720815 52.4591758,171.709613 C53.2579395,168.95536 52.2562719,164.631564 52.1635826,161.754132 C51.7125985,147.736903 51.3270421,134.991863 57.0613167,121.895726 C57.6626289,120.523111 58.3001599,119.16148 58.9641737,117.810833 C59.0031188,117.78808 59.0393377,117.76062 59.0759461,117.733944 C59.1012604,117.753559 59.124238,117.774742 59.1495523,117.793964 C59.1920024,117.717861 59.2500306,117.627242 59.3177951,117.526032 C59.5082365,117.328319 59.6745321,117.078431 59.8326491,116.799515 C60.341272,116.090258 60.9168803,115.257039 60.9199959,114.800808 C60.9199959,114.797278 60.9180487,114.791786 60.9180487,114.788255 C64.4678934,108.957288 68.5337605,103.447606 72.6868646,98.0458022 C72.6557085,98.0850309 77.1916428,91.8704069 76.4902418,95.3072407 C76.1521984,96.96348 72.8157728,100.117474 71.4682728,101.871785 C68.4874158,105.774657 64.9870314,110.719838 62.0782228,115.501827 C61.6868247,115.728177 61.1338045,116.839528 60.7338384,117.667255 C60.5130198,118.086611 60.3070003,118.509497 60.1044858,118.877856 C70.4113031,122.30449 78.4289282,115.402185 83.8960395,107.374015 C83.9026602,107.3646 83.908502,107.354793 83.9147332,107.345378 C85.5784673,105.12699 87.2827043,102.924294 89.4118322,101.170767 C92.9640136,98.2446921 96.7681697,97.7284413 100.956324,96.2883526 C112.37775,92.3615513 117.233813,77.4667743 118.776038,66.4148489 C120.516105,53.9463721 112.004656,34.8270473 97.1447687,36.0564774" id="Leaf-Me-Alone!" fill="#89C5CC"></path>
                    <path d="M86.4318822,3.83905514 C74.1470286,13.5643955 66.785378,28.4137152 60.6316429,42.4813427 C53.758649,58.1934745 48.4031493,74.3761957 45.8973594,91.3641361 C44.2512604,102.525307 42.3697696,113.724532 41.4485235,124.974349 C41.1210853,128.969681 40.9551504,132.994773 41.027437,137.002838 C41.0334957,137.332209 41.1977308,146.281912 42.8186791,144.429625 C43.7405487,143.376273 42.6655044,135.148036 42.6855144,133.805548 C42.7996858,126.244334 43.635548,118.728637 44.7327501,111.250784 C46.5391466,98.9387452 47.901585,86.6286395 50.8663178,74.5255952 C51.3086829,72.7185004 51.7254802,70.8137621 52.4095326,69.08125 C53.136139,67.2392531 52.4349741,67.9893536 54.0352375,67.4446223 C55.5901973,66.9149144 57.3695537,67.2718474 59.0052988,66.5630994 C65.4936953,63.7513402 69.8685094,54.8014441 73.1123612,48.9815762 C76.8224776,42.3263232 79.5308904,35.0540954 81.8926402,27.8335953 C83.6271923,22.5284113 85.0807569,17.2174883 86.2477811,11.7610963 C86.6155231,10.0414219 86.8781754,8.22597714 87.4569546,6.56559219 C87.6129179,6.11768786 88.1853539,5.36702138 88.2260972,4.95667797 C88.3122717,4.08821884 87.866454,3.50768205 87.9260911,2.77613767 C87.4207826,3.11963884 86.9222372,3.47418285 86.4318822,3.83905514" id="Leaf-Me-Alone!" fill="#89C5CC" transform="translate(64.623952, 73.728952) rotate(-8.000000) translate(-64.623952, -73.728952) "></path>
                    <path d="M17,152 C17,171.329966 31.9984609,187 50.5,187 C69.0015391,187 84,171.329966 84,152" id="Base" fill="#89C5CC"></path>
                    <path d="M53.7357821,152.645707 L52,152.645707 C52.1204387,150.412082 52.2795173,148.182364 52.6435846,145.973606 C54.0360512,137.52614 58.3899716,125.119022 67.9391257,123.747908 C68.2914091,123.696808 69.5872819,123.688226 71.1570266,123.782624 C71.9009886,123.356272 72.7343473,123.098433 73.6124043,123.039141 C81.7425758,122.424383 90.8220187,129.151618 94.7437289,136.152296 C97.9051887,141.796682 97.3725967,149.208499 95.4198858,155.205123 C94.1122703,159.219776 91.2583956,164.943738 86.4991599,164.999519 C80.5448121,165.069342 80.2576822,157.521389 80.1425272,153.10886 C79.9894922,147.242521 79.266743,142.132147 74.7597877,138.133487 C73.7093769,137.201988 72.561236,136.38244 71.5002188,135.463813 C69.8388047,134.025996 68.002764,132.553853 67.7887423,130.175175 C67.4932788,126.893473 69.2993943,126.302899 72.057054,126.912587 C72.527144,127.016347 77.2625153,129.195696 76.5613576,127.473125 C76.347336,126.946913 75.565494,126.529923 74.5787216,126.217473 C72.0252348,125.932718 68.9800664,125.602325 68.1042822,125.799703 C58.6562675,127.925612 54.9777465,141.348486 54.0008229,149.876698 C53.89539,150.797226 53.8101311,151.720757 53.735782,152.645707 Z" id="Leaf-Me-Alone!" fill="#69A1AC"></path>
                </g>
                <path d="M167.271385,19.4891747 C171.588426,17.6232387 177.070892,20.3370288 174.441873,25.7301256 C171.625831,31.5052768 162.3548,31.0925705 157.12722,30.7012111 C157.65249,30.7012111 159.623185,25.3732496 160.243569,24.5850573 C162.073195,22.2598898 164.617252,20.6386219 167.271385,19.4891747 Z M112.576616,125.489963 C111.282616,126.483963 112.470616,125.583963 112.576616,125.489963 Z M170.305339,46.9957953 C172.727375,49.044495 172.66925,52.4358236 170.487389,54.6197167 C167.889336,57.2195894 163.413204,56.8868057 160.082014,56.446743 C158.575165,56.2475107 150.529313,55.1834786 152.51377,53.9689275 C152.363524,54.0165463 152.048775,54.134772 151.709898,54.3000692 C151.498786,54.9344381 151.2789,55.5660704 151.051337,56.1944186 C151.097398,56.2245224 151.13633,56.2562682 151.185681,56.286372 C151.131943,56.2595522 151.094656,56.2316378 151.047498,56.2048181 C148.768033,62.4850158 145.681953,68.4171043 141.760745,73.9129615 C143.143668,73.4531946 144.568266,73.1247896 146.001089,73.0202473 C150.244175,72.7099046 158.939813,76.4279963 153.930691,81.761293 C149.127746,86.8740111 142.391889,80.76951 137.302708,79.7109513 C131.961838,86.3562259 126.125813,92.6873265 120.038098,98.7836175 C120.384651,98.9116954 120.681854,99.1563571 120.840325,99.521434 C123.208623,98.4782008 125.700298,96.9390762 127.859128,96.5997244 C130.97427,96.1109483 137.312578,96.046362 139.496632,98.9089587 C142.18297,102.428913 138.968577,105.006892 135.550749,105.477058 C130.594816,106.159046 124.297634,103.441495 119.661386,101.585459 C119.116332,101.652235 118.535087,101.464497 118.205532,101.016771 C118.102992,100.977363 118.000452,100.938501 117.900653,100.900735 C111.741653,106.961996 105.370993,112.801584 99.0442,118.508167 C99.1083563,118.508167 99.1725125,118.50762 99.2394105,118.50762 C100.860864,117.567287 102.586502,116.816335 104.432228,116.472057 C108.702183,115.670201 113.663051,115.92362 116.924601,119.134326 C120.173539,122.331349 121.102434,127.675045 117.397822,130.88192 C109.982566,137.301142 100.400255,121.284832 96.8744029,120.45342 C90.4483597,126.188465 83.6927619,131.507531 76.8417521,136.707276 C77.5984668,136.520633 78.3710835,136.394744 79.1645372,136.361356 C85.6284161,136.084402 100.311423,144.708864 92.0116884,152.009306 C84.7790313,158.371058 77.4997649,145.021943 72.1950852,140.209715 C65.7421732,145.052594 59.2574572,149.858254 52.9366961,154.872997 C56.2766593,154.175137 59.4669246,154.212903 62.9423288,155.457558 C66.5383686,156.747095 72.2899487,159.796883 69.7215055,164.580648 C67.1091947,169.445421 60.1485162,166.807234 56.5442512,165.031658 C54.578438,164.063411 50.6994527,160.938637 47.2235001,159.526496 C37.108747,168.069404 28.2354446,177.59698 21.2966999,189.003579 C16.9647824,196.125588 13.5579212,203.798223 11.026217,211.734676 C9.41024732,216.800323 6.30497533,225.28795 6.48318713,232 C4.65939503,218.488325 10.0797753,202.657016 15.6366933,190.954304 C20.7461625,180.193021 28.0342024,170.892045 36.4326389,162.615692 C34.7541579,156.554431 18.435441,147.088158 28.7536297,142.075603 C34.2321345,139.42647 39.4293387,144.566555 40.3220427,149.770132 C40.9350913,153.345914 39.4830765,157.723005 38.0096762,161.085872 C40.6472107,158.567006 43.3790605,156.138451 46.185485,153.799113 C50.063922,150.565966 54.0257073,147.436814 58.0214899,144.351449 C52.0324769,138.140764 46.9575533,121.01335 55.5484585,118.703021 C68.2338482,115.302935 61.0192864,137.928943 59.9225985,142.182882 C59.674747,142.184524 59.4861167,142.100233 59.3528691,141.933842 C59.40222,142.331212 59.4614412,142.756496 59.537661,143.186159 C67.1837695,137.313731 74.93187,131.569928 82.449666,125.54096 C81.827844,125.031932 80.8951108,123.162213 80.1378478,122.153463 C78.4286596,119.879258 76.803368,117.512006 75.6622642,114.89626 C73.8598575,110.762736 72.255403,104.235687 77.7212959,102.144295 C83.665893,99.8651645 86.0429642,107.276717 85.8548822,111.6144 C85.7243763,114.614379 84.7527108,117.420052 84.1698211,120.336836 C83.9877709,121.246518 84.2849734,125.405219 83.1224841,123.56232 C83.1471596,124.220772 83.1307093,124.695864 83.0835517,125.030838 C84.4335746,123.942722 85.7742756,122.841471 87.1072998,121.731462 C87.0563039,121.579849 87.0212098,121.415646 87.0212098,121.227361 C87.0212098,119.931256 88.3558791,119.501593 89.2535182,119.927972 C91.0142507,118.430992 92.7596296,116.913214 94.477043,115.362048 C98.1169504,112.075809 101.81224,108.693238 105.487242,105.233491 C104.765621,104.548767 105.113271,103.670831 104.442647,102.948887 C103.773119,102.228586 102.403355,101.778123 101.60716,101.099967 C99.6046076,99.393356 97.996863,96.9752007 96.8661777,94.6188951 C94.9996148,90.7256541 92.7481144,82.6452498 98.8791485,81.1553859 C105.198813,79.6168086 107.953693,87.4257315 108.101746,92.2259175 C108.130808,93.1558509 106.993543,101.462307 106.299888,104.463929 C113.101546,98.0326648 119.810535,91.3419608 125.930054,84.4980011 C124.18961,84.3912695 119.439855,80.5877926 118.492864,79.5680952 C116.182143,77.0809748 112.586103,71.6639348 117.000821,69.126459 C120.925867,66.8763376 125.417901,70.6655837 126.859497,74.1959371 C127.096382,74.7772139 127.758781,80.1072267 127.707237,82.4804999 C130.243876,79.5752106 132.671943,76.6463856 134.942636,73.6994983 C136.456613,71.7405626 137.881211,69.7230614 139.223557,67.6568468 C138.936225,67.474582 138.67302,67.1691654 138.429007,66.7936891 C132.154307,65.3957786 124.60032,55.1561115 132.216818,52.127123 C135.843016,50.6870672 139.505954,54.240409 141.095604,57.0761859 C141.42132,57.656368 141.847931,60.5102072 142.198872,62.7619707 C146.109661,55.8890019 149.207804,48.5584556 151.669869,41.0051412 C151.125912,40.8403914 150.681205,40.397592 150.657626,39.6745537 C147.675731,37.7725416 145.324981,36.1956504 143.355877,32.734262 C142.132522,30.5843041 139.982465,25.7058482 143.960152,24.7551158 C149.13652,23.5181238 151.930332,31.4239261 152.14638,35.2575069 C152.171604,35.7024956 152.101964,36.9892958 152.023002,38.1677223 C152.201214,38.152944 152.379974,38.1649856 152.553799,38.2049415 C153.974559,33.5224339 155.162272,28.7665826 156.159161,23.992669 C153.424021,22.9576459 153.708612,8.40875831 155.670038,6.43723379 C160.054597,2.02237627 162.62304,8.8635992 162.21562,12.3873846 C161.734723,16.5422548 159.634565,20.2351687 157.194435,23.4825466 C156.932874,23.8262771 157.003063,23.8125936 156.966323,23.3128707 C156.918618,23.5564377 156.826496,23.733229 156.697087,23.8580229 C156.698183,26.0583362 156.807304,28.3166678 156.595643,30.2526151 C155.989174,35.7966384 155.042733,41.3554399 153.807314,46.7949209 C153.506821,48.1178456 153.173428,49.4281814 152.808779,50.7253811 C155.144725,48.9481628 158.248352,47.4227217 159.455805,46.9580287 C162.589591,45.7533298 167.385956,44.5261899 170.305339,46.9957953 Z M6,230.833214 C6.0453284,232.691003 6.33950046,234.403063 7,235.833214 C6.53885291,234.217636 6.21230342,232.545274 6,230.833214 Z" id="Leaf-Top" fill="#C1DEE2" opacity="0.2" transform="translate(90.563610, 120.416607) rotate(-3.000000) translate(-90.563610, -120.416607) "></path>
            </g>
        </g>
    </g>
</svg>