<?xml version="1.0" encoding="UTF-8"?>
<svg width="1227px" height="452px" viewBox="0 0 1227 452" version="1.1" xmlns="http://www.w3.org/2000/svg" xmlns:xlink="http://www.w3.org/1999/xlink">
    <!-- Generator: Sketch 56.3 (81716) - https://sketch.com -->
    <title>about me 2 intento</title>
    <desc>Created with Sketch.</desc>
    <g id="Page-1" stroke="none" stroke-width="1" fill="none" fill-rule="evenodd">
        <g id="Desktop" transform="translate(0.000000, -1788.000000)">
            <g id="ABOUT-ME" transform="translate(-101.000000, 1787.000000)">
                <g id="about-me-2-intento" transform="translate(0.000000, 0.698305)">
                    <g id="Scene/Whiteboard" transform="translate(1157.000000, 226.301695)" fill="#C1DEE2" opacity="0.2">
                        <path d="M190.834859,21.6852597 C195.871407,19.5083344 202.267617,22.6744229 199.200428,28.9663691 C195.915046,35.7040455 185.098842,35.2225548 179,34.7659688 C179.612814,34.7659688 181.911959,28.5500138 182.63574,27.630456 C184.770304,24.9177606 187.73837,23.0262814 190.834859,21.6852597 Z M127.7997,142.268291 C126.5057,143.262291 127.6937,142.362291 127.7997,142.268291 Z M193.930337,53.1009109 C196.687956,55.4474392 196.621778,59.3317804 194.137611,61.8331557 C191.179586,64.8109835 186.083267,64.4298215 182.290527,63.925785 C180.574898,63.6975893 171.41426,62.4788742 173.673671,61.0877584 C173.502608,61.1422997 173.144249,61.2777125 172.758419,61.4670396 C172.518056,62.1936296 172.267704,62.917085 172.008612,63.636779 C172.061055,63.6712591 172.105381,63.7076199 172.16157,63.7421 C172.100387,63.7113814 172.057933,63.6794089 172.004242,63.6486903 C169.408946,70.8418683 165.895277,77.6363309 161.430769,83.9311454 C163.005302,83.40454 164.627284,83.0283934 166.258631,82.9086533 C171.089614,82.5531947 180.99007,86.8118019 175.286913,92.9204237 C169.818499,98.7764004 162.149361,91.7844608 156.355053,90.5720147 C150.274182,98.1833425 143.629551,105.434823 136.698358,112.417359 C137.092927,112.564056 137.431309,112.844286 137.611737,113.262435 C140.308172,112.067543 143.145079,110.304669 145.603025,109.915984 C149.149783,109.356152 156.36629,109.282177 158.852954,112.560922 C161.911495,116.592587 158.251735,119.545339 154.360352,120.083855 C148.717754,120.864986 141.54807,117.752373 136.26945,115.626517 C135.648877,115.703 134.987098,115.48797 134.611882,114.975157 C134.495135,114.930019 134.378387,114.885508 134.264761,114.842251 C127.252406,121.784665 119.999064,128.47318 112.795667,135.009355 C112.868712,135.009355 112.941758,135.008728 113.017924,135.008728 C114.864037,133.931695 116.82877,133.071573 118.930229,132.677245 C123.791804,131.758821 129.440021,132.049081 133.153472,135.726541 C136.852565,139.388329 137.910162,145.508862 133.69226,149.181934 C125.249589,156.534348 114.339609,138.189675 110.325235,137.237397 C103.008837,143.806171 95.3172221,149.898494 87.5169761,155.854149 C88.3785368,155.640372 89.2582028,155.496183 90.1615929,155.457941 C97.5210694,155.140724 114.238469,165.018963 104.788771,173.380703 C96.5539988,180.667291 88.2661593,165.377556 82.2264939,159.865753 C74.8795037,165.412663 67.496303,170.916942 60.2997738,176.660702 C64.102503,175.86139 67.734793,175.904647 71.691729,177.330243 C75.7860154,178.807246 82.3345011,182.300394 79.4101892,187.779597 C76.4359318,193.351583 68.5108219,190.329872 64.4071708,188.296172 C62.1689859,187.187166 57.7525508,183.608131 53.7949904,181.9907 C42.2787956,191.775529 32.1760597,202.68817 24.2759226,215.752998 C19.3437997,223.910365 15.4649035,232.698405 12.5824211,241.788616 C10.7425519,247.590679 7.20703143,257.312189 7.40993522,265 C5.33344904,249.524072 11.5048459,231.391295 17.8316982,217.987309 C23.649106,205.66161 31.9469345,195.008509 41.5090098,185.528986 C39.5979682,178.586573 21.0182242,167.744145 32.7660415,162.002893 C39.0036162,158.968644 44.9209151,164.855966 45.937307,170.81601 C46.635296,174.91162 44.9820984,179.925028 43.3045523,183.77677 C46.3075284,180.891725 49.4178874,178.11012 52.6131539,175.430702 C57.0289647,171.727538 61.539672,168.143488 66.0890872,164.60959 C59.2702711,157.496029 53.4921955,137.878727 63.2734069,135.232535 C77.7164108,131.338163 69.5022411,157.253415 68.2536024,162.125768 C67.97141,162.127649 67.7566442,162.031104 67.6049345,161.840523 C67.6611233,162.295661 67.7285498,162.782771 67.8153302,163.274896 C76.5208393,156.548767 85.3424718,149.969961 93.9018901,143.064536 C93.193912,142.481508 92.1319448,140.33998 91.2697597,139.184583 C89.3237563,136.579767 87.4732737,133.868377 86.1740651,130.872368 C84.1219274,126.137936 82.295169,118.662021 88.5183843,116.266593 C95.2866305,113.656136 97.9930549,122.145139 97.7789133,127.113409 C97.6303253,130.549509 96.5240314,133.763056 95.8603799,137.103865 C95.6531059,138.145791 95.991487,142.909062 94.66793,140.798252 C94.6960244,141.552426 94.6772948,142.096585 94.6236033,142.480254 C96.1606776,141.233955 97.6871384,139.97261 99.2048587,138.701234 C99.146797,138.52758 99.1068406,138.339507 99.1068406,138.123849 C99.1068406,136.639324 100.626434,136.147198 101.648445,136.635562 C103.653134,134.92096 105.640343,133.182536 107.595711,131.40587 C111.739943,127.641895 115.947231,123.767585 120.131419,119.80488 C119.309815,119.020614 119.705633,118.015048 118.942091,117.188153 C118.179797,116.363138 116.620247,115.84719 115.713735,115.070447 C113.433721,113.115738 111.603217,110.346045 110.31587,107.647193 C108.190687,103.187974 105.627232,93.9328852 112.607747,92.2264331 C119.803027,90.464186 122.939608,99.4083268 123.108174,104.906337 C123.141263,105.971459 121.846424,115.485462 121.056661,118.923443 C128.800718,111.557237 136.439265,103.893876 143.406669,96.0549793 C141.425079,95.9327316 136.017225,91.5763263 134.939026,90.4083909 C132.308144,87.5597069 128.213858,81.3551676 133.240253,78.4488077 C137.709131,75.8715762 142.823555,80.2116818 144.46489,84.2552584 C144.734596,84.921038 145.488774,91.0258984 145.430088,93.7441849 C148.318189,90.4165408 151.082676,87.0619394 153.667982,83.68665 C155.391728,81.4429352 157.013709,79.1321408 158.542043,76.7655514 C158.2149,76.55679 157.915227,76.2069736 157.637405,75.7769126 C150.493318,74.1757816 141.892695,62.4475286 150.564491,58.9782025 C154.693114,57.3287994 158.863568,61.3987063 160.67347,64.6467328 C161.044315,65.3112585 161.530036,68.5799731 161.9296,71.1590854 C166.382246,63.2869626 169.90965,54.8907421 172.712844,46.2393688 C172.093519,46.0506686 171.587196,45.5434975 171.56035,44.7153479 C168.165302,42.5368318 165.488845,40.7307009 163.246914,36.7661151 C161.854057,34.3036082 159.406101,28.7159495 163.934914,27.6270049 C169.828489,26.2101858 173.009396,35.2652899 173.255378,39.6561753 C173.284096,40.165854 173.204808,41.639722 173.114906,42.9894616 C173.317809,42.972535 173.521338,42.9863271 173.719247,43.0320916 C175.336858,37.668867 176.689134,32.2216364 177.824147,26.7537177 C174.710042,25.5682288 175.034063,8.90430467 177.267254,6.64617086 C182.259311,1.58950586 185.183623,9.4252678 184.719754,13.4613215 C184.172226,18.2202037 181.781083,22.449973 179.002862,26.1694366 C178.705061,26.5631368 178.784974,26.547464 178.743145,25.9750941 C178.688829,26.2540696 178.583943,26.4565619 178.436604,26.5994976 C178.437852,29.1196803 178.562092,31.7063155 178.321105,33.9237001 C177.630608,40.2736827 176.553032,46.6405919 175.146441,52.8708345 C174.804314,54.3860787 174.424728,55.8869038 174.009555,57.3726832 C176.669156,55.3371028 180.202803,53.5899015 181.577555,53.057654 C185.14554,51.6778227 190.606461,50.272288 193.930337,53.1009109 Z M7,265 C7.0453284,267.229347 7.33950046,269.283819 8,271 C7.53885291,269.061307 7.21230342,267.054472 7,265 Z" id="Leaf-Bottom" transform="translate(103.500000, 138.000000) scale(-1, 1) rotate(-3.000000) translate(-103.500000, -138.000000) "></path>
                    </g>
                    <g id="Plant-Right" opacity="0.247386533">
                        <path d="M80.8802947,127.603455 C66.835694,128.277744 50.5074715,139.015467 50.7644187,155.788653 C50.9514199,167.975816 52.5518129,179.979327 52.1444439,192.210727 C51.8181169,201.986198 49.9584615,211.532788 47.0187208,220.715029 C44.1919864,229.544725 37.2433449,237.538371 36.1873019,246.76478 C35.514091,252.643685 37.0782732,260.649684 39.429975,266.083811 C42.2898084,272.690812 41.0947377,272.270479 37.4297531,278.451699 C30.2481568,290.565016 23.9290988,302.876937 20.0145388,316.85425 C14.3757243,336.986593 11.7214626,360.105431 16.7916338,380.961214 C17.4362174,383.609665 18.8787996,393.205001 22.3280872,393.523759 C26.1805453,393.880548 23.8366895,388.552408 23.4480479,386.792539 C20.9698287,375.56332 18.7850341,365.749767 19.1205705,354.045314 C20.4157634,308.885662 46.5081778,276.479109 61.533447,236.687431 C62.3729545,234.628603 64.0898874,229.755766 65.3010178,226.532768 C67.2131073,221.444369 68.6793826,211.990341 71.5789157,208.06159 C77.0395404,200.660313 72.7936349,214.831983 71.8636953,217.549963 C70.6880814,220.987969 69.3819235,224.647851 68.1260646,227.684119 C62.3978545,241.748453 55.969648,257.119334 50.050851,271.618661 C82.7231152,276.215175 100.740238,231.949089 106.388053,203.498179 C111.041481,180.05775 113.885481,126.098313 80.8802947,127.603455" id="Leaf-Me-Alone!" fill="#69A1AC" transform="translate(61.640078, 260.556727) scale(-1, 1) rotate(6.000000) translate(-61.640078, -260.556727) "></path>
                        <path d="M215.904915,87.4381476 C192.163144,89.4768446 176.921447,106.431866 169.826386,130.146528 C166.002402,142.926533 165.564101,156.055324 163.439082,169.188855 C160.242367,188.948388 153.36427,203.922527 139.922147,218.000057 C135.75872,222.359893 132.690609,226.836306 130.509599,231.625491 C126.17995,236.407093 122.411081,241.818028 119.64217,248.433605 C116.105138,256.882208 115.104306,267.018825 119.188122,275.441838 C120.286063,277.706109 123.025229,282.251712 125.864128,284.316947 C115.235534,308.815431 109.391513,335.646428 110.050278,362.443304 C110.448336,378.619242 111.177964,394.801814 112.029196,410.957848 C112.258408,415.295884 113.563689,422.459283 115.524235,415.184045 C117.31856,408.529609 115.068437,398.083064 114.860222,391.131022 C113.847141,357.264578 112.981037,326.471817 125.862378,294.830785 C127.213152,291.514467 128.645287,288.224686 130.136912,284.961444 C130.224397,284.906472 130.305759,284.840127 130.387995,284.775677 C130.44486,284.823067 130.496477,284.874247 130.553342,284.920689 C130.648701,284.736818 130.779054,284.517878 130.931279,284.273348 C131.359082,283.795662 131.732644,283.19192 132.087835,282.518041 C133.230394,280.804436 134.523427,278.791329 134.530426,277.689049 C134.530426,277.680519 134.526051,277.66725 134.526051,277.65872 C142.50034,263.570764 151.63381,250.259049 160.963246,237.207976 C160.893258,237.302755 171.082676,222.287861 169.507065,230.591452 C168.747692,234.593022 161.252823,242.213257 158.22583,246.451775 C151.529702,255.881341 143.66652,267.829186 137.13224,279.38275 C136.253012,279.929625 135.01072,282.614715 134.112246,284.614553 C133.616204,285.627741 133.153406,286.649459 132.698483,287.539434 C155.851478,295.818382 173.862085,279.142012 186.143277,259.745482 C186.15815,259.722735 186.171273,259.699041 186.18527,259.676294 C189.922644,254.316539 193.751002,248.994697 198.533826,244.758074 C206.513364,237.688506 215.058932,236.441214 224.467106,232.961875 C250.123931,223.474494 261.032478,187.487843 264.496898,160.785746 C268.405743,130.661178 249.285822,84.4677727 215.904915,87.4381476" id="Leaf-Me-Alone!" fill="#89C5CC"></path>
                        <path d="M194.479594,8.96087693 C166.808407,32.789338 149.987065,68.8697528 135.881874,103.029058 C120.128038,141.181579 107.747919,180.431045 101.705402,221.55076 C97.7359229,248.566633 93.2401694,275.680719 90.8858088,302.891574 C90.0490838,312.555418 89.5719549,322.286891 89.6268568,331.970895 C89.6316326,332.766695 89.7605277,354.390259 93.4267616,349.870977 C95.5118288,347.300965 93.331358,327.445081 93.4116482,324.200281 C93.8671427,305.92476 95.9318442,287.740077 98.5787075,269.63991 C102.936434,239.838584 106.303439,210.053714 113.240384,180.726695 C114.275472,176.347912 115.256098,171.733842 116.828518,167.52888 C118.498802,163.058206 116.914276,164.889518 120.499641,163.530634 C123.983515,162.209259 127.94458,163.024589 131.613475,161.268399 C146.166637,154.301232 156.166398,132.556703 163.559384,118.406249 C172.014991,102.224619 178.251728,84.5785949 183.713532,67.0667788 C187.72493,54.2001815 191.109473,41.3271744 193.858477,28.1102328 C194.724726,23.9446913 195.359015,19.5505003 196.694609,15.5226358 C197.054523,14.4360862 198.351812,12.6068232 198.453622,11.6141024 C198.668971,9.51308936 197.689563,8.12199456 197.842061,6.35255535 C196.705372,7.19607743 195.583482,8.0661062 194.479594,8.96087693" id="Leaf-Me-Alone!" fill="#89C5CC" transform="translate(144.053647, 178.422001) rotate(-8.000000) translate(-144.053647, -178.422001) "></path>
                        <path d="M37,368.301695 C37,414.693614 70.5786438,452.301695 112,452.301695 C153.421356,452.301695 187,414.693614 187,368.301695" id="Base" fill="#89C5CC"></path>
                        <path d="M118.857294,369.592562 L115,369.592562 C115.267642,364.221225 115.62115,358.859285 116.430188,353.547748 C119.524558,333.233603 129.199937,303.397437 150.420279,300.100235 C151.203131,299.977352 154.082849,299.956715 157.57117,300.18372 C159.224419,299.158445 161.076327,298.538402 163.027565,298.39582 C181.094613,296.917473 201.271153,313.094871 209.986064,329.929834 C217.01153,343.50324 215.827993,361.326895 211.488635,375.747349 C208.582823,385.401633 202.240879,399.166399 191.6648,399.300538 C178.432916,399.468447 177.794849,381.317417 177.538949,370.706334 C177.198872,356.599185 175.592762,344.309953 165.577306,334.694128 C163.24306,332.454094 160.691635,330.483277 158.33382,328.274198 C154.641788,324.816591 150.561698,321.276436 150.086094,315.556282 C149.429508,307.664571 153.443098,306.244382 159.571231,307.710535 C160.615876,307.960053 171.138923,313.200869 169.580795,309.058495 C169.105191,307.793082 167.367764,306.79032 165.174937,306.038951 C159.500522,305.354184 152.733481,304.559666 150.787294,305.034313 C129.791706,310.146619 121.617215,342.425435 119.446273,362.933754 C119.211978,365.147405 119.022514,367.368277 118.857293,369.592562 Z" id="Leaf-Me-Alone!" fill="#69A1AC"></path>
                    </g>
                </g>
            </g>
        </g>
    </g>
</svg>