<?xml version="1.0" encoding="UTF-8"?>
<svg width="188px" height="150px" viewBox="0 0 188 150" version="1.1" xmlns="http://www.w3.org/2000/svg" xmlns:xlink="http://www.w3.org/1999/xlink">
    <!-- Generator: Sketch 56.3 (81716) - https://sketch.com -->
    <title>brave</title>
    <desc>Created with Sketch.</desc>
    <defs>
        <linearGradient x1="50%" y1="27.438788%" x2="79.0453103%" y2="106.559543%" id="linearGradient-1">
            <stop stop-color="#A4C0D4" offset="0%"></stop>
            <stop stop-color="#F2E4DB" offset="100%"></stop>
        </linearGradient>
    </defs>
    <g id="brave" stroke="none" stroke-width="1" fill="none" fill-rule="evenodd">
        <rect fill="#EEEFEA" x="0" y="0" width="188" height="150"></rect>
        <path d="M-94,-135 L282,-135 L281,113.800035 C281.666667,193.823438 253.333333,246.444888 196,271.664385 C138.666667,296.883882 42,286.333205 -94,240.012355 L-94,-135 Z" id="Rectangle" fill="url(#linearGradient-1)"></path>
        <g id="LOGO" transform="translate(16.000000, 41.000000)" fill="#F2E4DB">
            <g>
                <path d="M79.3365915,51.3825639 C79.7030128,50.7636555 79.4825518,49.9734024 78.8454957,49.6181579 C78.2760982,49.3013181 77.92108,48.7407555 77.8716664,48.0819651 C77.8192119,47.3884627 78.1187347,46.7230253 78.6714076,46.3005723 C83.4394461,42.6587615 83.6682694,36.556088 81.4294502,32.4113218 C79.0127419,27.9364218 74.2485044,26.0080568 69.3033369,27.4947664 C66.3195117,28.3906327 63.7773687,30.6794122 62.5024962,33.6173808 C60.7167623,37.7326049 61.9627469,42.6883037 65.3289578,45.676494 C65.8664264,46.1543386 66.4768752,46.6122422 66.7361069,47.2747254 C68.0839597,50.7200807 60.4590511,50.9076735 58.5456019,51.4697133 C57.8424075,51.6765085 57.4440573,52.3980759 57.6576764,53.0812386 C57.8310043,53.6395855 58.3593504,54 58.9302683,54 C59.0579836,54 59.1872194,53.9815361 59.3156949,53.9438699 C61.5666773,53.2821253 64.0502842,53.2119626 66.2161232,52.3205277 C69.4508177,50.989653 70.529556,47.3677832 68.1120874,44.7171121 C66.9732925,43.4689555 65.6801749,42.4335025 65.0119502,40.8522579 C64.1460707,38.8020314 64.1247848,36.5317158 64.953414,34.6218146 C65.9280034,32.3788254 67.8467741,30.6380531 70.0893942,29.9644917 C74.5351037,28.6277086 77.6481646,30.9711411 79.0735588,33.612211 C80.8007564,36.8108893 80.6525154,41.4984928 77.0270728,44.2680712 C75.7780474,45.2222832 75.1014603,46.718594 75.2170122,48.2695579 C75.3310438,49.7776856 76.192362,51.1203771 77.5212095,51.861147 C78.1605462,52.215653 78.9716906,52.0014723 79.3365915,51.3825639" id="Path-Copy-8" stroke="#F2E4DB" stroke-width="0.9" fill-rule="nonzero"></path>
                <path d="M95.5087246,58.468431 C93.2254195,58.1462239 90.2255932,57.5464128 90.0197839,54.8482614 C89.9345497,53.7278594 90.4293236,52.6467348 91.3426456,51.9570519 C93.2656112,50.5044572 93.8289881,47.5719733 92.6253156,45.2812407 C91.9607664,44.0157125 90.7411559,43.1489488 89.2817809,42.9026335 C87.7531099,42.6443352 86.2244389,43.0877028 85.0824398,44.12023 C83.9494493,45.1447687 83.3632047,46.5194745 83.4304219,47.9907093 C83.5024898,49.5331759 84.2862282,50.9784478 85.5820644,51.9570519 C86.4946935,52.6467348 86.9894673,53.7278594 86.9042332,54.8482614 C86.8210779,55.9407031 86.1897908,56.9133158 85.2147953,57.4512153 C85.0221523,57.5563986 84.816343,57.6555904 84.5925167,57.7467936 C83.9757819,58.0004319 83.2648043,57.7234936 83.0014793,57.131671 C82.5274943,56.0605322 83.4920954,55.8934372 84.1005147,55.3675207 C84.3624538,55.1405111 84.5391588,54.7896782 84.4546176,54.4601483 C84.3984878,54.2404616 84.2377209,54.060718 84.0818048,53.8909601 C82.4512686,52.1101669 81.1235562,50.5890033 81.0078318,48.0945612 C80.9080454,45.9343092 81.7645447,43.920515 83.4207204,42.4233172 C85.1240175,40.8835135 87.4114803,40.2224564 89.701022,40.6072409 C91.9219606,40.9827053 93.777709,42.3034881 94.7908174,44.2314048 C95.8053117,46.1626502 95.974394,48.4800114 95.2287684,50.523763 C94.9134714,51.3878638 94.4297849,52.2805904 93.7991908,52.973602 C93.3383721,53.4802127 92.42505,53.8357056 92.4472247,54.6225832 C92.4590051,55.0366593 92.7812317,55.3948151 93.163746,55.5845445 C94.043113,56.0199234 95.289749,56.0518779 96.2460346,56.2529245 C96.9008823,56.3907279 97.3145797,57.0118419 97.1718299,57.6402789 C96.9888883,58.4418023 96.2633586,58.57428 95.5087246,58.468431 Z" id="Path-Copy-5" stroke="#F2E4DB" stroke-width="0.9" fill-rule="nonzero"></path>
                <text id="Br-ve" font-family="Muli-ExtraBold, Muli" font-size="54" font-weight="600" letter-spacing="1.08000004">
                    <tspan x="0.143999871" y="54">Br  ve</tspan>
                </text>
            </g>
        </g>
    </g>
</svg>