<?xml version="1.0" encoding="UTF-8"?>
<svg width="1024px" height="713px" viewBox="0 0 1024 713" version="1.1" xmlns="http://www.w3.org/2000/svg" xmlns:xlink="http://www.w3.org/1999/xlink">
    <!-- Generator: Sketch 56.3 (81716) - https://sketch.com -->
    <title>fondo</title>
    <desc>Created with Sketch.</desc>
    <g id="Page-1" stroke="none" stroke-width="1" fill="none" fill-rule="evenodd">
        <g id="Desktop-Copy-2" transform="translate(0.000000, -86.000000)">
            <g id="fondo" transform="translate(-152.000000, 50.000000)">
                <g id="Plant-Left" opacity="0.2">
                    <path d="M221.341443,138.51861 C226.560465,131.070915 236.245475,112.156215 243.59115,109.49493 C248.322444,107.780816 246.942968,125.512008 247.001397,128.892957 C247.228935,141.973317 245.956542,154.970737 244.38524,167.941276 C241.554384,191.333589 232.29773,212.166222 219.601544,232.075487 C213.068356,242.320015 205.405445,252.688763 194.791954,259.080858 C189.906554,262.024547 184.028191,262.517418 179.203552,265.053646 C173.584555,268.006146 176.64465,265.619359 174.112359,271.479363 C170.595738,279.615194 169.470922,290.111283 167.843837,298.792504 C160.373058,338.644026 142.286444,549.309564 145.421969,589.846179 C145.700454,593.439167 140.694535,594.298373 140.444637,589.912087 C139.116384,566.654768 150.610059,405.598189 156.408813,352.928056 C162.207567,300.257924 168.075642,253.726496 173.959549,235.50428 C181.097605,213.396858 193.989344,186.810976 204.720816,166.194848 C209.705504,156.617061 215.138912,147.369223 221.341443,138.51861 Z" id="Leaf" fill="#69A1AC"></path>
                    <path d="M260.078841,396.84242 C273.65945,386.864031 288.359439,405.696228 276.070387,415.676151 C269.276708,421.192448 262.174313,419.23015 258.175858,414.633128 C255.580223,417.799625 253.150797,421.110505 250.816434,423.907048 C243.704225,432.428645 236.982113,441.153633 230.557723,450.082062 C217.212044,468.630653 205.775038,488.226844 193.816834,507.464704 C182.015651,526.451424 170.308831,545.535393 159.612398,565.003158 C150.551,581.497075 138.473308,600.900846 135.370968,618.983051 C140.078041,580.633823 157.939249,543.773426 179.208834,509.965643 C200.305346,476.43559 224.516046,439.81705 257.181274,413.355866 C253.856753,408.46299 253.764464,401.478783 260.078841,396.84242 Z" id="Leaf" fill="#C1DEE2"></path>
                    <path d="M341.341201,196.244086 C341.782898,195.60648 344.657646,191.172121 343.210013,191.455517 C346.157447,190.878512 339.156005,196.346144 346.5,192.99123 C343.01302,196.287116 345.025468,200.568525 345.07201,205.004427 C345.147942,212.206362 343.943924,219.349239 342.588595,226.396648 C340.446964,237.536451 337.256511,248.367594 332.625627,258.728949 C322.53247,281.308697 305.393774,303.045831 285.046956,317.162525 C275.002295,324.132504 265.15808,326.505524 253.702138,329.714239 C246.46608,331.741395 245.892249,335.48752 242.051332,342.514971 C234.054831,357.151647 226.20074,371.735674 219.148536,386.866193 C210.727737,404.933625 202.553172,423.020971 194.842184,441.406457 C168.86525,503.336988 147.722435,567.497945 136.618875,633.898305 C136.347013,594.768776 145.391691,554.468707 156.800677,517.171757 C165.111437,489.998046 175.930486,463.80341 187.470058,437.873952 C190.26633,431.592236 194.503826,423.511819 195.691312,416.576533 C196.52279,411.717327 193.980717,407.044197 192.816814,401.925399 C188.279281,381.991856 188.604047,359.659863 192.588676,339.619737 C196.982036,317.521694 209.687428,307.265243 231.18024,304.135198 C239.040592,302.990259 249.031301,303.409887 256.238856,300.055674 C264.09138,296.403046 267.330664,284.396905 271.795896,276.689905 C283.789358,255.987278 298.039327,236.132193 314.402227,218.688512 C318.932959,213.858135 323.805339,209.401784 328.97439,205.271294 C332.233991,202.665184 339.119804,199.454461 341.341201,196.244086 Z" id="Leaf" fill="#89C5CC"></path>
                    <path d="M101.831319,591.638418 L175.120294,591.638418 C179.262429,591.638418 182.620294,594.996282 182.620294,599.138418 C182.620294,599.504339 182.593514,599.869769 182.54017,600.23178 L177.509196,634.373448 C175.340063,649.093824 162.709028,660 147.829692,660 L129.12192,660 C114.242585,660 101.61155,649.093824 99.4424164,634.373448 L94.4114431,600.23178 C93.8075961,596.133896 96.6400729,592.322389 100.737957,591.718542 C101.099969,591.665198 101.465399,591.638418 101.831319,591.638418 Z" id="Base" fill="#C1DEE2"></path>
                </g>
                <g id="Plant-Left" opacity="0.2" transform="translate(1081.000000, 309.000000)">
                    <path d="M147.560962,92.3457399 C151.04031,87.38061 157.496983,74.7708099 162.3941,72.99662 C165.548296,71.8538776 164.628645,83.6746719 164.667598,85.928638 C164.81929,94.6488779 163.971028,103.313825 162.923493,111.96085 C161.036256,127.555726 154.865154,141.444148 146.40103,154.716991 C142.045571,161.546677 136.936963,168.459175 129.861303,172.720572 C126.60437,174.683031 122.685461,175.011612 119.469035,176.70243 C115.723037,178.670764 117.7631,177.079573 116.074906,180.986242 C113.730492,186.410129 112.980615,193.407522 111.895891,199.195003 C106.915372,225.762684 94.8576292,366.206376 96.9479794,393.230786 C97.133636,395.626111 93.7963566,396.198916 93.6297577,393.274725 C92.7442558,377.769845 100.406706,270.398793 104.272542,235.285371 C108.138378,200.171949 112.050428,169.150998 115.973033,157.002853 C120.731737,142.264572 129.326229,124.540651 136.480544,110.796566 C139.803669,104.411374 143.425941,98.2461485 147.560962,92.3457399 Z" id="Leaf" fill="#69A1AC"></path>
                    <path d="M173.385894,264.561613 C182.439633,257.909354 192.239626,270.464152 184.046925,277.117434 C179.517805,280.794965 174.782875,279.486767 172.117239,276.422086 C170.386816,278.533084 168.767198,280.740337 167.210956,282.604699 C162.469484,288.285763 157.988076,294.102422 153.705148,300.054708 C144.808029,312.420436 137.183359,325.484563 129.211223,338.309802 C121.343768,350.967616 113.539221,363.690262 106.408265,376.668772 C100.367333,387.664717 92.3155387,400.600564 90.2473118,412.655367 C93.3853604,387.089215 105.292833,362.515617 119.472556,339.977096 C133.536898,317.623727 149.677364,293.211367 171.454183,275.570577 C169.237836,272.30866 169.17631,267.652522 173.385894,264.561613 Z" id="Leaf" fill="#C1DEE2"></path>
                    <path d="M1.5840445,202.210053 C6.65051536,203.201688 14.9290716,214.672085 19.1053544,219.042395 C24.0685859,224.235896 28.5714686,229.771429 32.8159654,235.57129 C41.9534979,248.055251 50.1254147,261.328293 57.0743238,275.169751 C68.402865,297.734098 77.4784996,320.897183 84.065076,345.468493 C88.0969582,360.50948 90.7074351,376.098878 92.2545442,391.57941 C92.5467223,394.498946 95.6051872,417.008013 91.1981265,417.614695 C87.2344401,418.160973 88.4586749,400.523098 88.2674556,398.123913 C86.1059304,371.056612 79.6306134,344.720356 70.6235067,319.20807 C68.6616298,313.65046 66.8389768,306.843381 63.7014726,301.842069 C61.4420301,298.239703 63.6852695,299.495964 59.7145964,298.132642 C56.3051407,296.961313 52.4205512,297.247535 48.9291915,295.813731 C41.3445574,292.700812 35.2714414,286.657709 29.9479395,280.579058 C19.6025092,268.765734 11.404282,255.985565 7.13089257,240.848534 C4.76031153,232.455545 2.58186856,224.013735 1.37296648,215.361217 C1.06024456,213.124795 -1.67923114,201.571348 1.5840445,202.210053 Z" id="Leaf" fill="#69A1AC"></path>
                    <path d="M21.5776876,11.3654501 C40.6620341,44.4892298 56.3447683,80.8748334 66.4712228,117.727947 C72.6066456,140.056849 76.8973309,162.969584 81.1604684,185.716806 C87.7611679,220.938043 94.0046725,256.156562 95.7806539,292.003432 C97.5674052,328.058045 101.100585,369.642805 89.3041316,404.369115 C95.1965193,369.112476 89.5865663,331.584528 88.5932713,296.109078 C88.1185995,279.173673 86.7430887,262.403841 84.9386757,245.567397 C83.1876726,229.235142 80.3270289,212.980658 77.663125,196.776775 C76.3654881,188.885191 75.002677,181.00548 73.615146,173.13008 C73.2009204,170.780445 73.0259427,163.808257 71.5366749,162.203117 C70.0377619,160.587409 62.3901098,159.92874 59.9891012,158.74323 C55.1542947,156.355467 50.6065067,152.963823 46.5815962,149.380117 C38.8657899,142.510244 32.1534269,133.533919 26.8554929,124.685304 C14.5974478,104.211001 9.69668732,79.2248953 9.94439156,55.5130472 C9.99198474,50.9092777 17.3899102,1.33404629 14.4187843,0.651354344 C14.5976713,0.441681593 14.7668847,0.225188172 14.9264387,0 C17.1758356,3.76923765 19.3831456,7.56401892 21.5776876,11.3654501 Z" id="Leaf" fill="#89C5CC"></path>
                    <path d="M227.560801,130.829391 C227.855265,130.40432 229.771764,127.44808 228.806675,127.637011 C230.771631,127.252341 226.104003,130.897429 231,128.66082 C228.675347,130.858078 230.016979,133.71235 230.048007,136.669618 C230.098628,141.470908 229.295949,146.232826 228.392397,150.931099 C226.964643,158.357634 224.837674,165.578396 221.750418,172.485966 C215.021647,187.539131 203.595849,202.030554 190.031304,211.441684 C183.334863,216.088336 176.772053,217.67035 169.134759,219.809493 C164.31072,221.16093 163.928166,223.658347 161.367555,228.343314 C156.036554,238.101098 150.800493,247.823782 146.099024,257.910795 C140.485158,269.95575 135.035448,282.013981 129.894789,294.270971 C112.576833,335.557992 98.4816234,378.331963 91.0792499,422.59887 C90.8980087,396.512517 96.9277939,369.645805 104.533785,344.781171 C110.074291,326.665364 117.286991,309.202273 124.980039,291.915968 C126.84422,287.728157 129.669218,282.341213 130.460875,277.717689 C131.015194,274.478218 129.320478,271.362798 128.544543,267.950266 C125.519521,254.661237 125.736031,239.773242 128.392451,226.413158 C131.321357,211.681129 139.791619,204.843495 154.12016,202.756798 C159.360394,201.993506 166.020867,202.273258 170.825904,200.037116 C176.06092,197.602031 178.220443,189.597936 181.197264,184.459937 C189.192905,170.658185 198.692885,157.421462 209.601485,145.792341 C212.621973,142.57209 215.870226,139.601189 219.31626,136.847529 C221.489327,135.110123 226.079869,132.96964 227.560801,130.829391 Z" id="Leaf" fill="#89C5CC"></path>
                    <path d="M67.8875461,394.425612 L116.746863,394.425612 C119.508286,394.425612 121.746863,396.664188 121.746863,399.425612 C121.746863,399.669559 121.729009,399.913179 121.693447,400.15452 L118.339464,422.915632 C116.893376,432.729216 108.472685,440 98.5531283,440 L86.0812803,440 C76.1617235,440 67.741033,432.729216 66.2949443,422.915632 L62.9409621,400.15452 C62.5383974,397.422597 64.4267153,394.881593 67.1586382,394.479028 C67.3999791,394.443465 67.643599,394.425612 67.8875461,394.425612 Z" id="Base" fill="#C1DEE2"></path>
                </g>
                <g id="Maceta" transform="translate(180.000000, 571.000000)" fill="#F2F2F2">
                    <path d="M15.4177215,48.4556962 C15.4177215,69.7431274 17.0976047,87 39.6455696,87 C62.1935345,87 63.8734177,69.7431274 63.8734177,48.4556962" id="Base"></path>
                    <path d="M46.353417,35.1741665 C45.5269187,36.603205 44.7899627,38.0608242 44.1390143,39.5403256 C44.1160396,36.4933476 44.2845204,33.4240409 44.7446025,30.3127562 C45.5310424,24.9833358 46.7322042,19.6816031 47.8609075,14.3883552 C48.6720893,10.5844334 48.6208382,3.75184321 51.6994412,0.720495335 C52.5436123,0.0653705071 52.7468496,1.35061199 52.7468496,1.90838357 C52.7574533,2.02627925 52.7444932,-0.368253357 51.9250641,0.0488472497 C47.0544384,2.56440155 45.4762567,10.4741295 43.916926,14.4343524 C41.6418466,20.2148131 39.7060851,26.1238872 38.9090415,32.1379063 C38.7075715,33.6571528 38.5980001,35.1759528 38.5726691,36.6920733 C38.4071338,36.2865836 38.2516131,35.877968 38.0795978,35.473818 C35.2684432,28.8805917 31.4746806,22.4472391 26.743081,16.51405 C25.578443,15.0541979 10.9341658,0.649489986 9.78778975,2.85422841 C9.90089571,3.17442235 10.1377113,3.44013419 10.4988257,3.65136394 C10.5200331,3.67547897 10.5206222,3.66208173 10.5082512,3.62635577 C11.3683278,5.01564911 13.8136552,7.16143971 14.5753532,8.37880186 C16.4922637,11.4423031 17.9820814,14.6933656 19.4960519,17.8823543 C22.69483,24.6216105 25.6620943,31.428746 28.5386382,38.2501718 C29.2084376,39.839084 29.9065135,41.4190647 30.6187276,42.994133 C23.2768544,32.4045113 13.4825846,22.7906549 -1.42108547e-14,17.2870705 C4.60494447,19.6298004 7.62404905,24.037491 10.733874,27.4122547 C14.4846328,31.4827815 18.4350943,35.4438975 22.1929222,39.5099586 C26.6252623,44.3066155 31.8405077,49.35782 36.1037779,54.6658048 C40.2333239,63.3356026 44.2462293,72.0147785 46.7233678,81.1284714 C45.7083596,77.9796744 46.6438402,73.6282523 46.4700576,70.3236008 C46.3322097,67.6932768 46.0247028,65.0843884 45.6035009,62.4804124 C46.1242596,63.6549034 46.5731489,64.8302875 46.7763862,65.923502 C46.5908217,64.089867 46.3769808,62.2678429 46.1472343,60.4551969 C46.7369169,58.7582137 47.3159959,57.1746605 47.7071541,55.8702163 C49.7118395,49.1787436 52.0988467,42.6024871 55.349465,36.192803 C58.3573768,30.263633 61.8076979,24.4099342 65.5672931,18.7348651 C67.3210246,16.088911 69.0989091,13.4527816 70.8656007,10.8121864 C72.0219914,9.08349646 73.1230073,6.31562756 74.733,4.65928264 C64.3260729,14.1739995 52.9559778,23.7574888 46.353417,35.1741665" id="Fill-27"></path>
                </g>
                <g id="Top-Leaves" transform="translate(931.000000, 22.000000)" fill="#F2F2F2">
                    <path d="M211.459988,136.913619 C211.697988,126.527619 207.442988,116.955619 202.732988,107.921619 C193.563988,90.3346193 188.977988,79.8126193 190.459988,58.9256193 C191.331988,46.6416193 192.373988,33.6626193 186.103988,22.5076193 C181.538988,14.3846193 171.962988,5.69461932 161.850988,7.16361932 C145.843988,10.8096193 136.907988,26.0616193 133.481988,41.2056193 C129.235988,59.9756193 134.097988,73.9796193 148.271988,86.0066193 C156.258988,92.7816193 160.763988,99.7606193 162.941988,110.078619 C164.684988,118.329619 164.189988,127.791619 167.170988,135.726619 C171.627988,147.588619 179.674988,154.832619 191.778988,157.035619 C187.410988,133.523619 181.274988,109.229619 171.435988,87.4316193 C170.552988,85.2746193 164.205988,76.0546193 166.846988,73.7256193 C169.755988,71.1616193 174.556988,85.9036193 174.518988,85.8116193 C177.307988,92.3626193 179.660988,99.1256193 181.922988,105.916619 C181.910988,105.918619 181.897988,105.917619 181.884988,105.919619 C184.219988,112.892619 186.494988,119.937619 188.667988,127.028619 C189.511988,130.003619 190.301988,132.995619 191.003988,136.027619 C192.033988,140.476619 192.155988,152.193619 195.076988,155.672619 C195.701988,156.416619 196.337988,156.925619 196.978988,157.258619 C198.148988,162.164619 199.240988,167.081619 200.197988,172.008619 C202.696988,184.876619 204.141988,198.075619 202.521988,211.160619 C202.048988,214.979619 197.189988,228.261619 198.799988,231.652619 C201.742988,237.854619 203.397988,228.290619 204.025988,225.445619 C209.218988,201.883619 207.341988,179.762619 201.675988,156.694619 C206.884988,153.106619 211.362988,141.121619 211.459988,136.913619" id="Leaf" transform="translate(171.734760, 120.352443) rotate(-18.000000) translate(-171.734760, -120.352443) "></path>
                    <path d="M115.85853,100.65925 C108.257019,101.771171 101.081536,111.378886 97.541036,117.784796 C93.1599315,125.711405 90.104439,134.755685 87.8025125,143.463054 C84.0100599,157.806497 83.4975663,173.726407 83.4506116,188.416535 C83.4448854,190.186755 83.0755464,211.810007 85.6036573,211.455273 C88.1082908,211.103988 86.5221374,188.659157 86.7357241,184.011394 C87.1903832,174.09264 86.510685,164.31072 88.8372342,154.517877 C91.2456677,144.377773 95.6617019,134.821802 101.24187,126.063265 C101.958215,124.939269 103.473937,120.760077 105.195801,121.725391 C106.879872,122.669432 102.214748,128.236513 101.552229,129.318538 C98.8168301,133.786922 96.4416084,138.518625 94.4746637,143.379689 C90.7892908,152.487211 88.8744544,162.017885 88.9397329,171.831426 C94.724898,172.719698 99.7650864,169.33219 101.705691,163.687492 C103.382318,158.808606 103.546087,153.133437 105.450616,148.52017 C106.762485,145.343087 108.849107,142.644924 111.400695,140.363587 C118.131826,134.346332 125.159001,132.841156 127.165456,122.85456 C128.738439,115.02569 126.785237,99.0684087 115.85853,100.65925" id="Leaf" transform="translate(105.535828, 156.004078) scale(-1, 1) rotate(58.000000) translate(-105.535828, -156.004078) "></path>
                    <path d="M2.35176464,80 L3.05533376e-13,80 C0.164757456,77.0154001 0.379352103,74.0356557 0.883673399,71.0844844 C2.77417712,60.0223263 8.68534409,43.7749092 21.6499002,41.9794028 C22.1281833,41.9124864 23.8875448,41.9012485 26.0187329,42.0248651 C27.0287844,41.4665469 28.1602067,41.1288998 29.3523143,41.0512563 C40.3903669,40.2462156 52.7172123,49.0556901 58.0415826,58.2232442 C62.3337871,65.6147029 61.6107055,75.3206535 58.9595774,83.1733759 C57.1842731,88.4306594 53.3096661,95.9263239 46.8482165,95.9993701 C38.7642046,96.0908055 38.3743782,86.2065813 38.2180362,80.4282689 C38.0102659,72.7461579 37.0290143,66.0540017 30.910077,60.8176615 C29.4839707,59.597841 27.9251794,58.5246237 26.4846732,57.3216599 C24.2290287,55.4388046 21.7362997,53.5109978 21.4457299,50.3960624 C21.0445893,46.0985958 23.4966899,45.3252255 27.240669,46.1236256 C27.878894,46.2595018 34.3079438,49.1134119 33.3560062,46.8576634 C33.0654364,46.1685771 32.0039566,45.6225184 30.6642498,45.2133575 C27.1974692,44.8404643 23.0631495,44.407806 21.8741275,44.6662772 C9.04688492,47.450206 4.05268426,65.0277791 2.72634882,76.1956755 C2.5761854,77.4602545 2.45616417,78.7291607 2.35176454,80 Z" id="Leaf-Me-Alone!" transform="translate(30.552422, 68.500000) scale(-1, 1) translate(-30.552422, -68.500000) "></path>
                </g>
            </g>
        </g>
    </g>
</svg>