<?xml version="1.0" encoding="UTF-8"?>
<svg width="1024px" height="525px" viewBox="0 0 1024 525" version="1.1" xmlns="http://www.w3.org/2000/svg" xmlns:xlink="http://www.w3.org/1999/xlink">
    <!-- Generator: Sketch 56.3 (81716) - https://sketch.com -->
    <title>Fondo-hojas</title>
    <desc>Created with Sketch.</desc>
    <g id="Page-1" stroke="none" stroke-width="1" fill="none" fill-rule="evenodd">
        <g id="Desktop" transform="translate(0.000000, -139.000000)">
            <g id="Fondo-hojas" transform="translate(-165.000000, 51.000000)">
                <g id="Plant-Left" opacity="0.2" transform="translate(0.000000, 0.000000)">
                    <path d="M210.497626,131.732396 C215.460961,124.649573 224.671489,106.66153 231.65729,104.130625 C236.156791,102.500488 234.844898,119.363005 234.900464,122.578316 C235.116854,135.017852 233.906798,147.378511 232.412476,159.713605 C229.720307,181.959897 220.91715,201.771911 208.842967,220.705794 C202.629849,230.448429 195.342354,240.309198 185.248833,246.388136 C180.602775,249.18761 175.012401,249.656334 170.424127,252.068308 C165.080413,254.876162 167.990589,252.606307 165.582359,258.179221 C162.238022,265.916467 161.168312,275.898338 159.62094,284.154255 C152.516165,322.053397 135.315638,522.398144 138.29755,560.948816 C138.562391,564.365778 133.801719,565.182891 133.564064,561.011495 C132.300884,538.893583 143.231468,385.727384 148.746134,335.637633 C154.260799,285.547882 159.841388,241.296092 165.437035,223.966606 C172.225388,202.942257 184.485543,177.658853 194.691266,158.052738 C199.431747,148.944179 204.598965,140.149405 210.497626,131.732396 Z" id="Leaf" fill="#69A1AC"></path>
                    <path d="M247.337226,377.400573 C260.252503,367.911038 274.232319,385.82062 262.545325,395.311614 C256.084477,400.557659 249.330038,398.691498 245.527473,394.31969 C243.059002,397.331056 240.748596,400.479731 238.528597,403.139267 C231.764825,411.24338 225.372039,419.540919 219.262388,428.031932 C206.570532,445.671803 195.69384,464.30795 184.321485,482.60332 C173.098458,500.659856 161.965171,518.808875 151.79277,537.322888 C143.175303,553.008746 131.689313,571.461899 128.738961,588.658233 C133.215428,552.187786 150.201592,517.133229 170.42915,484.981736 C190.492116,453.094366 213.516701,418.269817 244.581615,393.105002 C241.419967,388.451835 241.332199,381.809794 247.337226,377.400573 Z" id="Leaf" fill="#C1DEE2"></path>
                    <path d="M324.618433,186.629823 C325.038491,186.023454 327.772401,181.80634 326.39569,182.075852 C329.198724,181.527115 322.540293,186.72688 329.524496,183.536328 C326.208348,186.670745 328.122203,190.742401 328.166465,194.960983 C328.238677,201.810085 327.093645,208.603023 325.804715,215.30517 C323.768006,225.899218 320.733858,236.19973 316.329847,246.053467 C306.731168,267.527003 290.432119,288.199205 271.082119,301.624304 C261.52956,308.252814 252.167626,310.509576 241.272927,313.561092 C234.391373,315.488935 233.845655,319.051532 230.192909,325.734698 C222.588168,339.654304 215.118859,353.523839 208.412152,367.913094 C200.403899,385.095378 192.629817,402.296601 185.296602,419.781357 C160.592313,478.677827 140.485313,539.695452 129.925731,602.842769 C129.667188,565.630248 138.268755,527.304534 149.118799,491.834812 C157.022404,465.992378 167.311413,441.081053 178.285646,416.421914 C180.944925,410.447948 184.974821,402.763402 186.10413,396.167884 C186.894873,391.546738 184.477339,387.10255 183.370458,382.23453 C179.055224,363.277558 179.364079,342.039639 183.153496,322.981306 C187.331619,301.965876 199.414557,292.211902 219.854407,289.235202 C227.329669,288.146356 236.83092,288.545425 243.685368,285.35554 C251.153185,281.881859 254.233773,270.463915 258.480247,263.134492 C269.886133,243.446114 283.437977,224.563757 298.999236,207.974666 C303.308001,203.380935 307.941677,199.142907 312.857489,195.214775 C315.957398,192.736342 322.505865,189.682916 324.618433,186.629823 Z" id="Leaf" fill="#89C5CC"></path>
                    <path d="M97.2680115,562.653251 L166.115367,562.653251 C170.257502,562.653251 173.615367,566.011115 173.615367,570.153251 C173.615367,570.519171 173.588587,570.884601 173.535243,571.246613 L168.997783,602.039154 C166.82865,616.75953 154.197614,627.665706 139.318279,627.665706 L124.0651,627.665706 C109.185764,627.665706 96.5547286,616.75953 94.3855956,602.039154 L89.8481355,571.246613 C89.2442884,567.148728 92.0767653,563.337222 96.1746496,562.733375 C96.536661,562.68003 96.902091,562.653251 97.2680115,562.653251 Z" id="Base" fill="#C1DEE2"></path>
                </g>
                <g id="Plant-Left" opacity="0.2" transform="translate(1126.000000, 315.000000)">
                    <path d="M94.1283036,58.8312706 C96.3271967,55.673528 100.407713,47.6538986 103.502614,46.5255423 C105.496016,45.7987766 104.914811,53.3166112 104.939429,54.7500973 C105.035296,60.2960293 104.499208,65.8067957 103.837182,71.3061646 C102.644478,81.2242539 98.7444379,90.0570663 93.3952445,98.4983806 C90.642663,102.841951 87.4141032,107.238188 82.9423969,109.948368 C80.8840662,111.19646 78.4073774,111.405432 76.3746466,112.480765 C74.0072348,113.732594 75.2965226,112.720622 74.2296107,115.2052 C72.7479778,118.654705 72.2740671,123.104934 71.5885388,126.785679 C68.4409291,143.682296 60.8206249,233.002219 62.1416934,250.189308 C62.2590255,251.712696 60.1499173,252.076991 60.0446294,250.217252 C59.4850061,240.356399 64.3275543,172.070141 66.770702,149.738571 C69.2138497,127.407001 71.6862036,107.678176 74.1652283,99.952152 C77.1726546,90.5788428 82.6042387,79.3067148 87.1256533,70.5656983 C89.2258163,66.5048193 91.5150354,62.5838353 94.1283036,58.8312706 Z" id="Leaf" fill="#69A1AC"></path>
                    <path d="M110.210907,168.671703 C116.005542,164.458076 122.277798,172.410446 117.034251,176.624721 C114.135494,178.954116 111.105013,178.125487 109.398934,176.184278 C108.291417,177.521412 107.254819,178.919514 106.258782,180.100425 C103.224114,183.698884 100.355893,187.383231 97.6147059,191.153485 C91.9203126,198.986096 87.0403203,207.261082 81.9379411,215.384754 C76.90256,223.402376 71.9074423,231.461063 67.3434406,239.681818 C63.4770833,246.646791 58.3237203,254.840523 57,262.47619 C59.0084347,246.282261 66.6295343,230.717028 75.7049347,216.440839 C84.7064881,202.281928 95.0368165,186.818825 108.974561,175.644922 C107.55604,173.578782 107.516661,170.629524 110.210907,168.671703 Z" id="Leaf" fill="#C1DEE2"></path>
                    <path d="M1.0158566,128.492403 C4.26501272,129.122984 9.5740972,136.417013 12.2523707,139.196095 C15.4353188,142.498644 18.3230427,146.018691 21.0450623,149.706825 C26.905013,157.64538 32.145709,166.085712 36.6020833,174.887501 C43.8671402,189.236177 49.6873955,203.96559 53.9114037,219.590495 C56.4970724,229.155064 58.1711858,239.068367 59.1633555,248.912444 C59.350731,250.768977 61.3121417,265.082501 58.485869,265.46829 C55.9439347,265.815669 56.7290433,254.599738 56.6064133,253.074095 C55.2202151,235.861989 51.0675581,219.114755 45.2912502,202.891483 C44.0330875,199.357397 42.8642099,195.028773 40.8521109,191.848437 C39.4031178,189.557691 40.8417198,190.356548 38.2953049,189.489611 C36.1088019,188.744763 33.6175929,188.926771 31.3785644,188.015015 C26.5144961,186.035508 22.6197728,182.192697 19.2057812,178.327281 C12.5711989,170.815184 7.3136299,162.68827 4.57308132,153.062627 C3.05281443,147.725522 1.65576676,142.357372 0.880491085,136.855233 C0.679940768,135.433092 -1.07690033,128.08625 1.0158566,128.492403 Z" id="Leaf" fill="#69A1AC"></path>
                    <path d="M13.4286446,7.69959251 C25.6059634,28.7516736 35.6127852,51.8768327 42.0742622,75.2991215 C45.9891461,89.4904326 48.7269418,104.052803 51.4471599,118.50998 C55.658927,140.895117 59.6427756,163.278526 60.7759919,186.061289 C61.9160802,208.976085 64.1705278,235.405609 56.6434596,257.47619 C60.4032679,235.068554 56.8236752,211.217369 56.1898747,188.670665 C55.8869966,177.907234 55.0093122,167.249034 53.8579543,156.548499 C52.7406762,146.168404 50.9153598,135.837738 49.2155789,125.539231 C48.3875842,120.523672 47.5180031,115.51566 46.6326489,110.510387 C46.3683403,109.017057 46.2566907,104.585828 45.3064203,103.565669 C44.3499956,102.538793 39.4701901,102.12017 37.9381572,101.36671 C34.8531692,99.8491483 31.9513216,97.6935623 29.3831111,95.4159095 C24.4598179,91.0497067 20.1768007,85.3447323 16.7963008,79.7209248 C8.9747008,66.7083189 5.84762896,50.8282014 6.00568381,35.7579481 C6.03605201,32.8319859 10.7565121,1.32405418 8.86069943,0.890163899 C8.97484343,0.756904718 9.08281493,0.619310606 9.18462299,0.476190476 C10.6199157,2.87175937 12.0283536,5.28356273 13.4286446,7.69959251 Z" id="Leaf" fill="#89C5CC"></path>
                    <path d="M144.812476,83.5290277 C144.999772,83.2581266 146.218773,81.37409 145.604922,81.4944973 C146.854744,81.2493436 143.885871,83.5723892 147,82.146979 C145.52139,83.5473101 146.374743,85.3663621 146.394479,87.2510542 C146.426677,90.3109569 145.916128,93.3457677 145.341418,96.3400166 C144.433286,101.07301 143.080414,105.674863 141.116745,110.077116 C136.836869,119.670626 129.569419,128.906133 120.941605,134.903925 C116.682292,137.865276 112.507975,138.873507 107.650226,140.236801 C104.581866,141.098083 104.338541,142.689708 102.709848,145.675478 C99.3190317,151.894196 95.9886023,158.090545 92.9982034,164.519084 C89.4274687,172.195436 85.9611466,179.880249 82.6913988,187.691733 C71.6762045,214.004301 62.7108581,241.264515 58.0025322,269.47619 C57.8872526,252.851137 61.7225351,235.728753 66.5603731,219.882311 C70.0844471,208.336954 74.6721295,197.207578 79.5653409,186.190869 C80.7510651,183.521942 82.5479224,180.088796 83.051461,177.142185 C83.4040388,175.077643 82.3261042,173.092159 81.8325661,170.917324 C79.9084816,162.448113 80.0461947,152.959868 81.7358269,144.445373 C83.5987761,135.056526 88.9863389,130.698844 98.1000972,129.368974 C101.433181,128.882522 105.669616,129.06081 108.72589,127.635698 C112.055655,126.083797 113.429233,120.98272 115.322658,117.708229 C120.408336,108.912256 126.450857,100.47638 133.389341,93.065043 C135.310541,91.0127494 137.376613,89.1193693 139.568484,87.3644384 C140.950677,86.2571744 143.87052,84.8930269 144.812476,83.5290277 Z" id="Leaf" fill="#89C5CC"></path>
                    <path d="M45.7806854,251.47619 L72.2193146,251.47619 C74.9807384,251.47619 77.2193146,253.714767 77.2193146,256.47619 C77.2193146,256.717259 77.2018805,256.958012 77.1671486,257.196565 L75.8888889,265.97619 C74.6767412,274.301731 67.53822,280.47619 59.1249013,280.47619 L58.8750987,280.47619 C50.46178,280.47619 43.3232588,274.301731 42.1111111,265.97619 L40.8328514,257.196565 C40.4349997,254.463952 42.3276979,251.926208 45.0603111,251.528357 C45.2988643,251.493625 45.539617,251.47619 45.7806854,251.47619 Z" id="Base" fill="#C1DEE2"></path>
                </g>
                <g id="Maceta" transform="translate(182.000000, 509.000000)" fill="#F2F2F2">
                    <path d="M14.595443,50.2949529 C14.595443,70.4470544 16.1857325,86.7835605 37.5311392,86.7835605 C58.876546,86.7835605 60.4668354,70.4470544 60.4668354,50.2949529" id="Base"></path>
                    <path d="M43.8812348,33.298211 C43.0988164,34.651034 42.4011647,36.0309136 41.7849335,37.4315083 C41.7631842,34.5470358 41.9226793,31.6414254 42.3582237,28.6960759 C43.1027201,23.6508913 44.23982,18.6319176 45.3083258,13.6209763 C46.0762446,10.0199303 46.0277268,3.55174491 48.9421377,0.682068917 C49.7412863,0.0618840801 49.9336843,1.27857935 49.9336843,1.80660311 C49.9437224,1.91821102 49.9314536,-0.348613177 49.1557273,0.046242063 C44.5448683,2.42763347 43.0508563,9.91550929 41.57469,13.6645203 C39.4209481,19.1366897 37.5884273,24.7306132 36.8338926,30.4238846 C36.6431677,31.8621047 36.5394401,33.299902 36.5154601,34.7351627 C36.3587533,34.3512992 36.2115271,33.9644763 36.0486859,33.581881 C33.3874596,27.3402935 29.796031,21.250053 25.3167834,15.6333006 C24.2142594,14.2513073 10.3510103,0.61485052 9.26577429,2.7020029 C9.37284794,3.00511982 9.59703339,3.25666037 9.93888832,3.45662453 C9.95896463,3.47945342 9.95952231,3.4667707 9.94781112,3.43295013 C10.762017,4.74814783 13.076927,6.77949626 13.7980011,7.93193243 C15.6126763,10.8320469 17.023037,13.9097195 18.4562624,16.9286288 C21.484439,23.3084579 24.2934493,29.7525462 27.0165775,36.2101627 C27.6506543,37.7143328 28.3114995,39.2100479 28.9857288,40.7011126 C22.0354222,30.6762707 12.7635135,21.5751533 1.3500312e-13,16.3650934 C4.35934744,18.5828777 7.2174331,22.7554915 10.1614007,25.9502678 C13.7121191,29.8036998 17.4518893,33.5535563 21.0092997,37.4027608 C25.2052483,41.943596 30.1423473,46.7254029 34.1782431,51.7502952 C38.0875466,59.9577038 41.8864304,68.1739903 44.2314548,76.8016196 C43.2705804,73.8207585 44.1561687,69.7014121 43.9916545,66.5730087 C43.8611585,64.0829687 43.570052,61.6132211 43.1713142,59.1481237 C43.6642991,60.2599752 44.0892477,61.3726722 44.2816456,62.4075819 C44.1059779,60.6717407 43.9035418,58.9468913 43.6860485,57.2309198 C44.2442814,55.6244423 44.7924761,54.1253452 45.1627725,52.8904714 C47.0605414,46.5558773 49.3202415,40.3303545 52.3974935,34.2625202 C55.2449834,28.6495726 58.5112873,23.108071 62.0703708,17.7356723 C63.73057,15.2308358 65.4136339,12.7352999 67.086102,10.2355365 C68.1808185,8.59904332 69.2231135,5.97879409 70.74724,4.41078757 C60.895349,13.4180528 50.131659,22.4904227 43.8812348,33.298211" id="Fill-27"></path>
                </g>
                <g id="Top-Leaves" transform="translate(971.000000, 76.000000)" fill="#F2F2F2">
                    <path d="M188.147446,122.268225 C188.370431,112.992292 184.593126,104.448153 180.41023,96.3849859 C172.267347,80.6879616 168.196422,71.2957373 169.538001,52.6400864 C170.327372,41.6683803 171.268813,30.0757914 165.699564,20.1200433 C161.644762,12.87033 153.130055,5.11960272 144.127343,6.44239581 C129.874898,9.71577331 121.904224,23.3468261 118.838359,36.8755193 C115.038691,53.6434517 119.351563,66.1451348 131.955576,76.8711902 C139.057897,82.9133448 143.060516,89.1414224 144.988192,98.3540361 C146.53087,105.72109 146.080108,114.17208 148.725124,121.255589 C152.679783,131.844698 159.835009,138.305649 170.606953,140.260164 C166.744002,119.26641 161.308115,97.5761507 152.573348,78.119024 C151.789663,76.1935657 146.149799,67.9660377 148.503166,65.8831904 C151.095343,63.5901787 155.353126,76.7510308 155.319399,76.6689069 C157.79499,82.5165792 159.882251,88.5540548 161.888479,94.6166345 C161.877795,94.6184336 161.866224,94.6175544 161.85465,94.6193545 C163.925663,100.844399 165.943191,107.133811 167.869874,113.464414 C168.617968,116.120466 169.317975,118.791757 169.939607,121.498867 C170.851687,125.47114 170.947727,135.935397 173.544109,139.039342 C174.099652,139.703134 174.665238,140.157037 175.235464,140.453751 C176.271674,144.834018 177.238442,149.224193 178.08503,153.623443 C180.295709,165.113104 181.567821,176.899508 180.111764,188.587384 C179.686633,191.998619 175.347187,203.865906 176.776685,206.892663 C179.389733,212.428481 180.873171,203.885152 181.435231,201.343626 C186.083002,180.29497 184.435909,160.540841 179.417075,139.945012 C184.057682,136.735006 188.056592,126.026471 188.147446,122.268225" id="Leaf" transform="translate(152.831377, 107.508672) rotate(-18.000000) translate(-152.831377, -107.508672) "></path>
                    <path d="M103.024112,90.0968327 C96.242205,91.0748971 89.8544161,99.621882 86.7053059,105.322592 C82.8085172,112.376594 80.0965608,120.428412 78.0565486,128.181337 C74.6955998,140.952547 74.2643308,155.133482 74.246502,168.219664 C74.2442929,169.796602 73.9501245,189.058421 76.2056763,188.74656 C78.440282,188.437733 76.9879863,168.44083 77.1709782,164.30086 C77.5604694,155.465781 76.9378634,146.750737 78.9980703,138.03089 C81.1307834,129.00183 85.0560738,120.496418 90.0215654,112.703282 C90.6590037,111.703179 92.0048126,107.982755 93.5430179,108.845497 C95.0474614,109.689228 90.8933422,114.64085 90.3038706,115.603654 C87.8700728,119.579696 85.7581352,123.790899 84.0107637,128.118008 C80.736794,136.225132 79.0435775,144.712108 79.1179158,153.454313 C84.2821603,154.255085 88.7745666,151.245685 90.4971472,146.220455 C91.9854047,141.876994 92.1222546,136.821708 93.8143316,132.715239 C94.9798612,129.88718 96.8375796,127.487022 99.1109256,125.458943 C105.108051,120.109684 111.376765,118.780359 113.150997,109.887388 C114.541926,102.915852 112.772702,88.6975865 103.024112,90.0968327" id="Leaf" transform="translate(93.900688, 139.375475) scale(-1, 1) rotate(58.000000) translate(-93.900688, -139.375475) "></path>
                    <path d="M2.09259057,71.4754098 L2.82440737e-13,71.4754098 C0.146600512,68.8088411 0.337545953,66.1466105 0.786288984,63.5099082 C2.46845148,53.6265046 7.72818372,39.1103697 19.2639928,37.5061878 C19.6895671,37.4464017 21.2550399,37.4363613 23.1513624,37.5468057 C24.0501021,37.0479805 25.056837,36.7463121 26.1175695,36.6769421 C35.9391836,35.9576844 46.9075603,43.8284444 51.6451633,52.019128 C55.4643494,58.6229722 54.8209543,67.2946822 52.4619913,74.3106392 C50.8823328,79.0077203 47.4347233,85.7046664 41.6853519,85.769929 C34.492231,85.8516213 34.1453651,77.0206341 34.0062526,71.8580435 C33.8213795,64.9945181 32.9482658,59.0154605 27.5036604,54.337091 C26.2347168,53.2472514 24.8477107,52.2883933 23.5659541,51.2136142 C21.5588908,49.531391 19.3408708,47.8090062 19.082323,45.0259902 C18.7253897,41.1864503 20.9072588,40.4954883 24.2386361,41.2088131 C24.8065261,41.3302106 30.5270683,43.8800155 29.6800382,41.8646337 C29.4214904,41.2489746 28.47699,40.7611025 27.2849243,40.3955407 C24.2001971,40.062382 20.5214962,39.6758267 19.4635094,39.9067559 C8.04988128,42.3940365 3.60606191,58.0985896 2.42589405,68.0764642 C2.29227926,69.206293 2.18548485,70.3399878 2.09259049,71.4754098 Z" id="Leaf-Me-Alone!" transform="translate(27.185420, 61.200820) scale(-1, 1) translate(-27.185420, -61.200820) "></path>
                </g>
            </g>
        </g>
    </g>
</svg>