<?xml version="1.0" encoding="UTF-8"?>
<svg width="1024px" height="535px" viewBox="0 0 1024 535" version="1.1" xmlns="http://www.w3.org/2000/svg" xmlns:xlink="http://www.w3.org/1999/xlink">
    <!-- Generator: Sketch 56.3 (81716) - https://sketch.com -->
    <title>Fondo-hojas</title>
    <desc>Created with Sketch.</desc>
    <g id="Page-1" stroke="none" stroke-width="1" fill="none" fill-rule="evenodd">
        <g id="Desktop" transform="translate(0.000000, -139.000000)">
            <g id="Fondo-hojas" transform="translate(-69.000000, 127.000000)">
                <g id="Plant-Left" opacity="0.2" transform="translate(0.000000, 28.000000)">
                    <path d="M122.497626,27.802556 C127.460961,20.7159615 136.671489,2.71833781 143.65729,0.186084852 C148.156791,-1.44492017 146.844898,15.4265771 146.900464,18.6436015 C147.116854,31.0897621 145.906798,43.4570044 144.412476,55.7986683 C141.720307,78.0568086 132.91715,97.8793744 120.842967,116.823342 C114.629849,126.571166 107.342354,136.437187 97.2488326,142.519362 C92.602775,145.320327 87.0124007,145.789301 82.4241271,148.20256 C77.0804127,151.011908 79.9905891,148.740845 77.5823589,154.316727 C74.2380217,162.058093 73.168312,172.045281 71.6209397,180.305595 C64.5161649,218.224922 47.3156381,418.676373 50.2975499,457.247577 C50.5623914,460.666359 45.801719,461.483907 45.5640636,457.310289 C44.3008836,435.180597 55.2314683,281.932822 60.7461336,231.816393 C66.2607988,181.699964 71.8413883,137.424606 77.437035,120.08589 C84.2253883,99.0503436 96.485543,73.7534743 106.691266,54.1369164 C111.431747,45.0235065 116.598965,36.2240483 122.497626,27.802556 Z" id="Leaf" fill="#69A1AC"></path>
                    <path d="M159.337226,273.601576 C172.252503,264.106987 186.232319,282.026107 174.545325,291.522156 C168.084477,296.770996 161.330038,294.90384 157.527473,290.529704 C155.059002,293.542674 152.748596,296.693026 150.528597,299.353979 C143.764825,307.462407 137.372039,315.764366 131.262388,324.259901 C118.570532,341.909167 107.69384,360.55524 96.3214851,378.860354 C85.098458,396.926506 73.9651709,415.085192 63.79277,433.609065 C55.1753025,449.303278 43.6893131,467.766259 40.7389607,484.971751 C45.2154277,448.48188 62.2015917,413.408654 82.4291503,381.240036 C102.492116,349.335683 125.516701,314.492587 156.581615,289.314369 C153.419967,284.658724 153.332199,278.013145 159.337226,273.601576 Z" id="Leaf" fill="#C1DEE2"></path>
                    <path d="M236.618433,82.7292214 C237.038491,82.1225296 239.772401,77.9031694 238.39569,78.1728254 C241.198724,77.623796 234.540293,82.8263308 241.524496,79.6340792 C238.208348,82.7701654 240.122203,86.8439906 240.166465,91.0648188 C240.238677,97.9175688 239.093645,104.714125 237.804715,111.419841 C235.768006,122.019532 232.733858,132.325529 228.329847,142.184515 C218.731168,163.669488 202.432119,184.3527 183.082119,197.784948 C173.52956,204.416989 164.167626,206.674953 153.272927,209.728095 C146.391373,211.656964 145.845655,215.221459 142.192909,221.908184 C134.588168,235.835203 127.118859,249.712126 120.412152,264.109044 C112.403899,281.300479 104.629817,298.510863 97.2966017,316.004932 C72.5923126,374.93277 52.4853129,435.982893 41.9257311,499.163842 C41.6671882,461.931502 50.2687549,423.585376 61.1187995,388.096763 C69.0224042,362.240565 79.3114132,337.315972 90.2856462,312.6437 C92.9449249,306.666552 96.9748205,298.977913 98.1041299,292.378883 C98.8948726,287.755275 96.4773386,283.30872 95.3704576,278.438107 C91.0552238,259.471039 91.3640793,238.221809 95.1534962,219.153325 C99.331619,198.126703 111.414557,188.367534 131.854407,185.389249 C139.329669,184.299822 148.83092,184.699104 155.685368,181.50752 C163.153185,178.031989 166.233773,166.607964 170.480247,159.274637 C181.886133,139.575773 195.437977,120.68336 210.999236,104.085433 C215.308001,99.4892555 219.941677,95.2489703 224.857489,91.3187463 C227.957398,88.8389933 234.505865,85.7839413 236.618433,82.7292214 Z" id="Leaf" fill="#89C5CC"></path>
                    <path d="M9.26733749,458.952919 L78.1160408,458.952919 C82.2581764,458.952919 85.6160408,462.310783 85.6160408,466.452919 C85.6160408,466.818647 85.5892894,467.183886 85.5360007,467.545711 L80.9961082,498.371169 C78.8279779,513.092576 66.1964777,524 51.3162685,524 L36.0671098,524 C21.1869005,524 8.55540038,513.092576 6.38727011,498.371169 L1.84737757,467.545711 C1.24384509,463.447781 4.07661455,459.636492 8.17454526,459.032959 C8.53637058,458.97967 8.90160911,458.952919 9.26733749,458.952919 Z" id="Base" fill="#C1DEE2"></path>
                </g>
                <g id="Plant-Left" opacity="0.2" transform="translate(1015.000000, 239.000000)">
                    <path d="M1.0158566,128.492403 C4.26501272,129.122984 9.5740972,136.417013 12.2523707,139.196095 C15.4353188,142.498644 18.3230427,146.018691 21.0450623,149.706825 C26.905013,157.64538 32.145709,166.085712 36.6020833,174.887501 C43.8671402,189.236177 49.6873955,203.96559 53.9114037,219.590495 C56.4970724,229.155064 58.1711858,239.068367 59.1633555,248.912444 C59.350731,250.768977 61.3121417,265.082501 58.485869,265.46829 C55.9439347,265.815669 56.7290433,254.599738 56.6064133,253.074095 C55.2202151,235.861989 51.0675581,219.114755 45.2912502,202.891483 C44.0330875,199.357397 42.8642099,195.028773 40.8521109,191.848437 C39.4031178,189.557691 40.8417198,190.356548 38.2953049,189.489611 C36.1088019,188.744763 33.6175929,188.926771 31.3785644,188.015015 C26.5144961,186.035508 22.6197728,182.192697 19.2057812,178.327281 C12.5711989,170.815184 7.3136299,162.68827 4.57308132,153.062627 C3.05281443,147.725522 1.65576676,142.357372 0.880491085,136.855233 C0.679940768,135.433092 -1.07690033,128.08625 1.0158566,128.492403 Z" id="Leaf" fill="#69A1AC"></path>
                    <path d="M13.4286446,7.69959251 C25.6059634,28.7516736 35.6127852,51.8768327 42.0742622,75.2991215 C45.9891461,89.4904326 48.7269418,104.052803 51.4471599,118.50998 C55.658927,140.895117 59.6427756,163.278526 60.7759919,186.061289 C61.9160802,208.976085 64.1705278,235.405609 56.6434596,257.47619 C60.4032679,235.068554 56.8236752,211.217369 56.1898747,188.670665 C55.8869966,177.907234 55.0093122,167.249034 53.8579543,156.548499 C52.7406762,146.168404 50.9153598,135.837738 49.2155789,125.539231 C48.3875842,120.523672 47.5180031,115.51566 46.6326489,110.510387 C46.3683403,109.017057 46.2566907,104.585828 45.3064203,103.565669 C44.3499956,102.538793 39.4701901,102.12017 37.9381572,101.36671 C34.8531692,99.8491483 31.9513216,97.6935623 29.3831111,95.4159095 C24.4598179,91.0497067 20.1768007,85.3447323 16.7963008,79.7209248 C8.9747008,66.7083189 5.84762896,50.8282014 6.00568381,35.7579481 C6.03605201,32.8319859 10.7565121,1.32405418 8.86069943,0.890163899 C8.97484343,0.756904718 9.08281493,0.619310606 9.18462299,0.476190476 C10.6199157,2.87175937 12.0283536,5.28356273 13.4286446,7.69959251 Z" id="Leaf" fill="#89C5CC"></path>
                    <path d="M45.7806854,251.47619 L72.2193146,251.47619 C74.9807384,251.47619 77.2193146,253.714767 77.2193146,256.47619 C77.2193146,256.717259 77.2018805,256.958012 77.1671486,257.196565 L75.8888889,265.97619 C74.6767412,274.301731 67.53822,280.47619 59.1249013,280.47619 L58.8750987,280.47619 C50.46178,280.47619 43.3232588,274.301731 42.1111111,265.97619 L40.8328514,257.196565 C40.4349997,254.463952 42.3276979,251.926208 45.0603111,251.528357 C45.2988643,251.493625 45.539617,251.47619 45.7806854,251.47619 Z" id="Base" fill="#C1DEE2"></path>
                </g>
                <g id="Maceta" transform="translate(94.000000, 433.000000)" fill="#F2F2F2">
                    <path d="M14.595443,50.2410545 C14.595443,70.3715601 16.1857325,86.6905592 37.5311392,86.6905592 C58.876546,86.6905592 60.4668354,70.3715601 60.4668354,50.2410545" id="Base"></path>
                    <path d="M43.8812348,33.262527 C43.0988164,34.6139004 42.4011647,35.9923012 41.7849335,37.3913949 C41.7631842,34.5100135 41.9226793,31.607517 42.3582237,28.6653238 C43.1027201,23.6255459 44.23982,18.6119507 45.3083258,13.6063794 C46.0762446,10.0091925 46.0277268,3.54793869 48.9421377,0.68133798 C49.7412863,0.0618177621 49.9336843,1.27720916 49.9336843,1.80466707 C49.9437224,1.91615537 49.9314536,-0.348239587 49.1557273,0.0461925079 C44.5448683,2.4250319 43.0508563,9.90488336 41.57469,13.6498767 C39.4209481,19.1161819 37.5884273,24.7041107 36.8338926,30.391281 C36.6431677,31.8279598 36.5394401,33.2642162 36.5154601,34.6979389 C36.3587533,34.3144867 36.2115271,33.9280784 36.0486859,33.5458931 C33.3874596,27.3109943 29.796031,21.2272805 25.3167834,15.6165473 C24.2142594,14.2360349 10.3510103,0.614191617 9.26577429,2.69910731 C9.37284794,3.0018994 9.59703339,3.25317038 9.93888832,3.45292025 C9.95896463,3.47572467 9.95952231,3.46305555 9.94781112,3.42927122 C10.762017,4.74305949 13.076927,6.77223103 13.7980011,7.92343219 C15.6126763,10.8204388 17.023037,13.8948132 18.4562624,16.9104872 C21.484439,23.2834795 24.2934493,29.7206619 27.0165775,36.1713581 C27.6506543,37.6739164 28.3114995,39.1680285 28.9857288,40.6574953 C22.0354222,30.6433966 12.7635135,21.5520324 1.3500312e-13,16.3475558 C4.35934744,18.5629635 7.2174331,22.7311056 10.1614007,25.9224582 C13.7121191,29.7717607 17.4518893,33.5175987 21.0092997,37.3626782 C25.2052483,41.8986473 30.1423473,46.6753298 34.1782431,51.6948371 C38.0875466,59.8934503 41.8864304,68.1009318 44.2314548,76.7193153 C43.2705804,73.7416486 44.1561687,69.6267168 43.9916545,66.5016659 C43.8611585,64.0142944 43.570052,61.5471934 43.1713142,59.0847378 C43.6642991,60.1953978 44.0892477,61.3069024 44.2816456,62.340703 C44.1059779,60.606722 43.9035418,58.883721 43.6860485,57.1695884 C44.2442814,55.5648325 44.7924761,54.067342 45.1627725,52.8337915 C47.0605414,46.5059858 49.3202415,40.2871346 52.3974935,34.2258028 C55.2449834,28.6188704 58.5112873,23.0833073 62.0703708,17.7166659 C63.73057,15.2145137 65.4136339,12.7216522 67.086102,10.2245676 C68.1808185,8.58982818 69.2231135,5.97238693 70.74724,4.40606076 C60.895349,13.4036734 50.131659,22.4663209 43.8812348,33.262527" id="Fill-27"></path>
                </g>
                <g id="Top-Leaves" transform="translate(875.000000, 0.000000)" fill="#F2F2F2">
                    <path d="M188.150643,122.107073 C188.369549,112.843693 184.589052,104.30938 180.40323,96.2552154 C172.254652,80.5757172 168.180207,71.1943293 169.513456,52.5643158 C170.297928,41.6076877 171.234177,30.031077 165.661374,20.0862681 C161.603983,12.844521 153.087102,5.10048675 144.086243,6.4175754 C129.837247,9.68033848 121.87365,23.2896087 118.814123,36.798797 C115.02231,53.5425544 119.340025,66.0293311 131.946932,76.7464823 C139.050882,82.783622 143.055651,89.0050825 144.987073,98.2061659 C146.532748,105.564 146.085737,114.003444 148.733468,121.078595 C152.692187,131.65521 159.849218,138.110607 170.620487,140.067197 C166.748924,119.09995 161.304343,97.436446 152.562325,78.0016364 C151.777911,76.0784219 146.135257,67.8594816 148.487381,65.7804581 C151.07819,63.4916566 155.341112,76.6366932 155.307354,76.5546648 C157.785145,82.3955646 159.874745,88.4258434 161.883333,94.4811572 C161.872652,94.4829492 161.861082,94.4820662 161.849511,94.4838588 C163.922947,100.701448 165.942932,106.983294 167.872105,113.306237 C168.621251,115.959048 169.322325,118.627058 169.945049,121.330804 C170.858733,125.29814 170.959326,135.748386 173.556694,138.849296 C174.112448,139.512439 174.678152,139.96598 175.248426,140.262544 C176.286401,144.637381 177.254947,149.022082 178.103334,153.415794 C180.318713,164.89099 181.595788,176.662122 180.145037,188.333668 C179.721454,191.740136 175.387802,203.589593 176.818418,206.61291 C179.43351,212.142434 180.913011,203.611225 181.473882,201.073357 C186.11181,180.054995 184.456332,160.326674 179.429223,139.756312 C184.067771,136.552642 188.061442,125.860232 188.150643,122.107073" id="Leaf" transform="translate(152.823198, 107.356063) rotate(-18.000000) translate(-152.823198, -107.356063) "></path>
                    <path d="M103.048172,89.9038566 C96.2728533,90.886038 89.8861823,99.4337215 86.736631,105.134156 C82.8392966,112.187817 80.1248638,120.238087 78.0818571,127.989142 C74.715976,140.75727 74.2757061,154.932579 74.2491653,168.013318 C74.2459065,169.5896 73.9392008,188.843585 76.1925523,188.530349 C78.4249782,188.22016 76.9875749,168.232562 77.1731336,164.094196 C77.5681036,155.262541 76.9519769,146.551546 79.015802,137.83396 C81.152262,128.807241 85.079036,120.302756 90.0444253,112.509556 C90.6818503,111.509445 92.0287044,107.789674 93.5646918,108.65103 C95.0669659,109.493405 90.9139785,114.445735 90.324494,115.40853 C87.890642,119.384539 85.7781498,123.595396 84.0297569,127.921866 C80.7538739,136.027794 79.0568029,144.512362 79.1252291,153.250873 C84.2834253,154.047865 88.7730427,151.036722 90.4971369,146.012439 C91.9867033,141.669795 92.1267799,136.616526 93.81979,132.51064 C94.985962,129.682982 96.8432983,127.282585 99.1155701,125.253835 C105.109861,119.902805 111.372769,118.569852 113.15104,109.679405 C114.545135,102.709847 112.787286,88.4986895 103.048172,89.9038566" id="Leaf" transform="translate(93.902360, 139.170483) scale(-1, 1) rotate(58.000000) translate(-93.902360, -139.170483) "></path>
                    <path d="M2.09259057,71.3692946 L2.84217094e-13,71.3692946 C0.146600512,68.7066848 0.337545953,66.0484066 0.786288984,63.4156189 C2.46845148,53.5468886 7.72818372,39.0523049 19.2639928,37.4505046 C19.6895671,37.3908073 21.2550399,37.3807818 23.1513624,37.4910623 C24.0501021,36.9929776 25.056837,36.6917571 26.1175695,36.62249 C35.9391836,35.9043002 46.9075603,43.763375 51.6451633,51.9418984 C55.4643494,58.5359382 54.8209543,67.1947739 52.4619913,74.2003146 C50.8823328,78.8904223 47.4347233,85.5774259 41.6853519,85.6425916 C34.492231,85.7241626 34.1453651,76.9062862 34.0062526,71.7513602 C33.8213795,64.8980247 32.9482658,58.9278438 27.5036604,54.25642 C26.2347168,53.1681984 24.8477107,52.2107638 23.5659541,51.1375804 C21.5588908,49.4578547 19.3408708,47.7380271 19.082323,44.9591428 C18.7253897,41.1253033 20.9072588,40.4353671 24.2386361,41.1476328 C24.8065261,41.2688501 30.5270683,43.8148695 29.6800382,41.8024798 C29.4214904,41.1877348 28.47699,40.700587 27.2849243,40.3355679 C24.2001971,40.0029038 20.5214962,39.6169224 19.4635094,39.8475087 C8.04988128,42.3310966 3.60606191,58.0123341 2.42589405,67.9753952 C2.29227926,69.1035466 2.18548485,70.2355583 2.09259049,71.3692946 Z" id="Leaf-Me-Alone!" transform="translate(27.185420, 61.109959) scale(-1, 1) translate(-27.185420, -61.109959) "></path>
                </g>
            </g>
        </g>
    </g>
</svg>