<?xml version="1.0" encoding="UTF-8"?>
<svg width="188px" height="150px" viewBox="0 0 188 150" version="1.1" xmlns="http://www.w3.org/2000/svg" xmlns:xlink="http://www.w3.org/1999/xlink">
    <!-- Generator: Sketch 56.3 (81716) - https://sketch.com -->
    <title>netflix</title>
    <desc>Created with Sketch.</desc>
    <g id="netflix" stroke="none" stroke-width="1" fill="none" fill-rule="evenodd">
        <rect fill="#323232" x="0" y="0" width="188" height="150"></rect>
        <g id="netflix-logo" transform="translate(17.000000, 55.000000)" fill="#E50914" fill-rule="nonzero">
            <path d="M146.538483,19.04 L155,40 C152.506289,39.6666667 150.014003,39.2493333 147.476118,38.8733333 L142.709568,27.292 L137.81192,37.9173333 C135.407982,37.5413333 133.046794,37.416 130.642857,37.124 L139.236897,18.7906667 L131.44227,0 L138.656931,0 L143.020213,10.4986667 L147.69699,0 L154.998575,0 L146.538483,19.04 Z M126.214286,0 L119.571429,0 L119.571429,36.4640976 C121.740407,36.589882 123.999036,36.6728462 126.214286,36.9230769 L126.214286,0 Z M114.035714,35.8974359 C108.175275,35.5229629 102.313437,35.1911345 96.3214286,35.0645333 L96.3214286,0 L102.881705,0 L102.881705,29.1515911 C106.644031,29.2342151 110.404958,29.5247315 114.035714,29.691312 L114.035714,35.8974359 L114.035714,35.8974359 Z M89.9957415,14.2934122 L89.9957415,20.5797239 L80.8094503,20.5797239 L80.8094503,34.8717949 L74.1785714,34.8717949 L74.1785714,0 L93,0 L93,6.28631164 L80.8108844,6.28631164 L80.8108844,14.2934122 L89.9971755,14.2934122 L89.9957415,14.2934122 Z M63.0075415,6.21177039 L63.0075415,34.7896251 C60.8453621,34.7896251 58.641682,34.7896251 56.5223865,34.8717949 L56.5223865,6.21177039 L49.8214286,6.21177039 L49.8214286,0 L69.75,0 L69.75,6.21177039 L63.0075415,6.21177039 L63.0075415,6.21177039 Z M42.6185115,20.7939013 C39.8018199,20.7939013 36.4715123,20.7939013 34.0810126,20.9205876 L34.0810126,30.2126998 C37.8375121,29.9619941 41.5940116,29.6712822 45.3928571,29.5459294 L45.3928571,35.5468628 L27.6785714,36.9230769 L27.6785714,0 L45.3914911,0 L45.3914911,6.2503056 L34.0810126,6.2503056 L34.0810126,14.6689485 C36.5575703,14.6689485 40.3564158,14.5435957 42.6185115,14.5435957 L42.6185115,20.7952348 L42.6185115,20.7939013 Z M6.59348946,17.2906667 L6.59348946,39.124 C4.26783607,39.3746667 2.19737002,39.6666667 0,40 L0,0 L6.16449883,0 L14.5691288,22.7093333 L14.5691288,0 L21.0357143,0 L21.0357143,37.416 C18.7514426,37.792 16.4230304,37.9173333 13.9663349,38.2493333 L6.59348946,17.2906667 Z" id="Fill-14"></path>
        </g>
    </g>
</svg>